thaisansnew-regular.ufo
<glyph name="numbersign" format="1">
  <advance width="546"/>
  <unicode hex="0023"/>
  <outline>
    <contour>
      <point x="154" y="301" type="line" name="hr00"/>
      <point x="126" y="196" type="line"/>
      <point x="50" y="196" type="line"/>
      <point x="37" y="147" type="line"/>
      <point x="113" y="147" type="line"/>
      <point x="74" y="0" type="line"/>
      <point x="132" y="0" type="line"/>
      <point x="171" y="147" type="line"/>
      <point x="311" y="147" type="line"/>
      <point x="272" y="0" type="line"/>
      <point x="330" y="0" type="line"/>
      <point x="369" y="147" type="line"/>
      <point x="454" y="147" type="line"/>
      <point x="468" y="196" type="line"/>
      <point x="382" y="196" type="line"/>
      <point x="410" y="301" type="line"/>
      <point x="496" y="301" type="line"/>
      <point x="509" y="350" type="line"/>
      <point x="423" y="350" type="line"/>
      <point x="461" y="490" type="line"/>
      <point x="403" y="490" type="line"/>
      <point x="365" y="350" type="line"/>
      <point x="225" y="350" type="line"/>
      <point x="263" y="490" type="line"/>
      <point x="205" y="490" type="line"/>
      <point x="167" y="350" type="line"/>
      <point x="90" y="350" type="line"/>
      <point x="78" y="301" type="line"/>
    </contour>
    <contour>
      <point x="352" y="301" type="line"/>
      <point x="324" y="196" type="line"/>
      <point x="184" y="196" type="line"/>
      <point x="212" y="301" type="line"/>
    </contour>
  </outline>
</glyph>
<glyph name="percent" format="1">
  <advance width="573"/>
  <unicode hex="0025"/>
  <outline>
    <contour>
      <point x="504" y="602" type="line" name="hr00"/>
      <point x="441" y="602" type="line"/>
      <point x="105" y="0" type="line"/>
      <point x="168" y="0" type="line"/>
    </contour>
    <contour>
      <point x="172" y="420" type="curve" smooth="yes"/>
      <point x="172" y="345"/>
      <point x="153" y="331"/>
      <point x="133" y="331" type="curve" smooth="yes"/>
      <point x="112" y="331"/>
      <point x="95" y="343"/>
      <point x="95" y="419" type="curve" smooth="yes"/>
      <point x="95" y="495"/>
      <point x="112" y="513"/>
      <point x="133" y="513" type="curve" smooth="yes"/>
      <point x="153" y="513"/>
      <point x="172" y="496"/>
    </contour>
    <contour>
      <point x="130" y="282" type="curve" smooth="yes"/>
      <point x="185" y="282"/>
      <point x="228" y="331"/>
      <point x="228" y="423" type="curve" smooth="yes"/>
      <point x="228" y="515"/>
      <point x="190" y="562"/>
      <point x="135" y="562" type="curve" smooth="yes"/>
      <point x="78" y="562"/>
      <point x="37" y="512"/>
      <point x="37" y="417" type="curve" smooth="yes"/>
      <point x="37" y="329"/>
      <point x="75" y="282"/>
    </contour>
    <contour>
      <point x="480" y="124" type="curve" smooth="yes"/>
      <point x="480" y="49"/>
      <point x="462" y="35"/>
      <point x="441" y="35" type="curve" smooth="yes"/>
      <point x="420" y="35"/>
      <point x="403" y="47"/>
      <point x="403" y="123" type="curve" smooth="yes"/>
      <point x="403" y="199"/>
      <point x="420" y="217"/>
      <point x="441" y="217" type="curve" smooth="yes"/>
      <point x="462" y="217"/>
      <point x="480" y="200"/>
    </contour>
    <contour>
      <point x="438" y="-12" type="curve" smooth="yes"/>
      <point x="493" y="-12"/>
      <point x="536" y="35"/>
      <point x="536" y="127" type="curve" smooth="yes"/>
      <point x="536" y="219"/>
      <point x="498" y="266"/>
      <point x="443" y="266" type="curve" smooth="yes"/>
      <point x="386" y="266"/>
      <point x="345" y="216"/>
      <point x="345" y="121" type="curve" smooth="yes"/>
      <point x="345" y="33"/>
      <point x="385" y="-12"/>
    </contour>
  </outline>
</glyph>
<glyph name="parenleft" format="1">
  <advance width="204"/>
  <unicode hex="0028"/>
  <outline>
    <contour>
      <point x="142" y="-139" type="curve" name="hr00"/>
      <point x="197" y="-139" type="line"/>
      <point x="118" y="-46"/>
      <point x="78" y="60"/>
      <point x="78" y="187" type="curve" smooth="yes"/>
      <point x="78" y="315"/>
      <point x="118" y="428"/>
      <point x="197" y="524" type="curve"/>
      <point x="142" y="524" type="line"/>
      <point x="63" y="431"/>
      <point x="22" y="319"/>
      <point x="22" y="187" type="curve" smooth="yes"/>
      <point x="22" y="58"/>
      <point x="63" y="-51"/>
    </contour>
  </outline>
</glyph>
<glyph name="plus" format="1">
  <advance width="374"/>
  <unicode hex="002B"/>
  <outline>
    <contour>
      <point x="162" y="230" type="line" name="hr00"/>
      <point x="37" y="230" type="line"/>
      <point x="37" y="180" type="line"/>
      <point x="162" y="180" type="line"/>
      <point x="162" y="60" type="line"/>
      <point x="212" y="60" type="line"/>
      <point x="212" y="180" type="line"/>
      <point x="337" y="180" type="line"/>
      <point x="337" y="230" type="line"/>
      <point x="212" y="230" type="line"/>
      <point x="212" y="362" type="line"/>
      <point x="162" y="362" type="line"/>
    </contour>
  </outline>
</glyph>
<glyph name="hyphen" format="1">
  <advance width="269"/>
  <unicode hex="002D"/>
  <outline>
    <contour>
      <point x="232" y="190" type="line" name="hr00"/>
      <point x="232" y="240" type="line"/>
      <point x="37" y="240" type="line"/>
      <point x="37" y="190" type="line"/>
    </contour>
  </outline>
</glyph>
<glyph name="zero" format="1">
  <advance width="414"/>
  <unicode hex="0030"/>
  <outline>
    <contour>
      <point x="332" y="241" type="curve" smooth="yes" name="hr00"/>
      <point x="332" y="104"/>
      <point x="275" y="40"/>
      <point x="203" y="40" type="curve" smooth="yes"/>
      <point x="135" y="40"/>
      <point x="82" y="101"/>
      <point x="82" y="238" type="curve" smooth="yes"/>
      <point x="82" y="382"/>
      <point x="135" y="450"/>
      <point x="203" y="450" type="curve" smooth="yes"/>
      <point x="275" y="450"/>
      <point x="332" y="381"/>
    </contour>
    <contour>
      <point x="392" y="246" type="curve" smooth="yes"/>
      <point x="392" y="418"/>
      <point x="310" y="500"/>
      <point x="207" y="500" type="curve" smooth="yes"/>
      <point x="99" y="500"/>
      <point x="22" y="408"/>
      <point x="22" y="235" type="curve" smooth="yes"/>
      <point x="22" y="72"/>
      <point x="96" y="-8"/>
      <point x="198" y="-8" type="curve" smooth="yes"/>
      <point x="301" y="-8"/>
      <point x="392" y="78"/>
    </contour>
  </outline>
</glyph>
<glyph name="three" format="1">
  <advance width="349"/>
  <unicode hex="0033"/>
  <outline>
    <contour>
      <point x="327" y="134" type="curve" smooth="yes" name="hr00"/>
      <point x="327" y="199"/>
      <point x="270" y="247"/>
      <point x="207" y="255" type="curve"/>
      <point x="272" y="275"/>
      <point x="307" y="315"/>
      <point x="307" y="383" type="curve" smooth="yes"/>
      <point x="307" y="449"/>
      <point x="244" y="500"/>
      <point x="168" y="500" type="curve" smooth="yes"/>
      <point x="121" y="500"/>
      <point x="88" y="490"/>
      <point x="57" y="470" type="curve"/>
      <point x="57" y="420" type="line"/>
      <point x="88" y="443"/>
      <point x="133" y="450"/>
      <point x="168" y="450" type="curve" smooth="yes"/>
      <point x="213" y="450"/>
      <point x="247" y="428"/>
      <point x="247" y="367" type="curve" smooth="yes"/>
      <point x="247" y="321"/>
      <point x="207" y="297"/>
      <point x="167" y="286" type="curve" smooth="yes"/>
      <point x="144" y="279"/>
      <point x="117" y="275"/>
      <point x="87" y="275" type="curve"/>
      <point x="87" y="228" type="line"/>
      <point x="220" y="228"/>
      <point x="267" y="196"/>
      <point x="267" y="129" type="curve" smooth="yes"/>
      <point x="267" y="69"/>
      <point x="214" y="40"/>
      <point x="151" y="40" type="curve" smooth="yes"/>
      <point x="107" y="40"/>
      <point x="69" y="46"/>
      <point x="37" y="73" type="curve"/>
      <point x="37" y="20" type="line"/>
      <point x="65" y="4"/>
      <point x="104" y="-8"/>
      <point x="151" y="-8" type="curve" smooth="yes"/>
      <point x="253" y="-8"/>
      <point x="327" y="43"/>
    </contour>
  </outline>
</glyph>
<glyph name="four" format="1">
  <advance width="360"/>
  <unicode hex="0034"/>
  <outline>
    <contour>
      <point x="232" y="401" type="line" name="hr00"/>
      <point x="232" y="170" type="line"/>
      <point x="72" y="170" type="line"/>
    </contour>
    <contour>
      <point x="7" y="170" type="line"/>
      <point x="7" y="119" type="line"/>
      <point x="232" y="119" type="line"/>
      <point x="232" y="0" type="line"/>
      <point x="292" y="0" type="line"/>
      <point x="292" y="119" type="line"/>
      <point x="353" y="119" type="line"/>
      <point x="353" y="170" type="line"/>
      <point x="292" y="170" type="line"/>
      <point x="292" y="490" type="line"/>
      <point x="232" y="490" type="line"/>
    </contour>
  </outline>
</glyph>
<glyph name="five" format="1">
  <advance width="329"/>
  <unicode hex="0035"/>
  <outline>
    <contour>
      <point x="307" y="146" type="curve" smooth="yes" name="hr00"/>
      <point x="307" y="235"/>
      <point x="245" y="295"/>
      <point x="133" y="295" type="curve" smooth="yes"/>
      <point x="97" y="295" type="line"/>
      <point x="97" y="440" type="line"/>
      <point x="273" y="440" type="line"/>
      <point x="273" y="490" type="line"/>
      <point x="37" y="490" type="line"/>
      <point x="37" y="240" type="line"/>
      <point x="44" y="241"/>
      <point x="53" y="243"/>
      <point x="62" y="245" type="curve" smooth="yes"/>
      <point x="78" y="248"/>
      <point x="102" y="250"/>
      <point x="133" y="250" type="curve" smooth="yes"/>
      <point x="202" y="250"/>
      <point x="247" y="209"/>
      <point x="247" y="142" type="curve" smooth="yes"/>
      <point x="247" y="75"/>
      <point x="207" y="40"/>
      <point x="132" y="40" type="curve" smooth="yes"/>
      <point x="104" y="40"/>
      <point x="80" y="44"/>
      <point x="63" y="51" type="curve"/>
      <point x="53" y="54"/>
      <point x="44" y="57"/>
      <point x="37" y="62" type="curve"/>
      <point x="37" y="10" type="line"/>
      <point x="58" y="-1"/>
      <point x="85" y="-8"/>
      <point x="132" y="-8" type="curve" smooth="yes"/>
      <point x="240" y="-8"/>
      <point x="307" y="46"/>
    </contour>
  </outline>
</glyph>
<glyph name="six" format="1">
  <advance width="363"/>
  <unicode hex="0036"/>
  <outline>
    <contour>
      <point x="86" y="162" type="curve" smooth="yes" name="hr00"/>
      <point x="86" y="196"/>
      <point x="115" y="259"/>
      <point x="182" y="259" type="curve" smooth="yes"/>
      <point x="245" y="259"/>
      <point x="282" y="223"/>
      <point x="282" y="152" type="curve" smooth="yes"/>
      <point x="282" y="91"/>
      <point x="235" y="40"/>
      <point x="182" y="40" type="curve" smooth="yes"/>
      <point x="121" y="40"/>
      <point x="86" y="86"/>
    </contour>
    <contour>
      <point x="22" y="216" type="curve" smooth="yes"/>
      <point x="22" y="75"/>
      <point x="86" y="-8"/>
      <point x="182" y="-8" type="curve" smooth="yes"/>
      <point x="274" y="-8"/>
      <point x="341" y="59"/>
      <point x="341" y="152" type="curve" smooth="yes"/>
      <point x="341" y="244"/>
      <point x="272" y="308"/>
      <point x="189" y="308" type="curve" smooth="yes"/>
      <point x="156" y="308"/>
      <point x="106" y="299"/>
      <point x="82" y="258" type="curve"/>
      <point x="82" y="379"/>
      <point x="136" y="450"/>
      <point x="225" y="450" type="curve" smooth="yes"/>
      <point x="252" y="450"/>
      <point x="273" y="448"/>
      <point x="288" y="445" type="curve" smooth="yes"/>
      <point x="297" y="443"/>
      <point x="305" y="441"/>
      <point x="312" y="440" type="curve"/>
      <point x="312" y="490" type="line"/>
      <point x="288" y="501"/>
      <point x="256" y="500"/>
      <point x="225" y="500" type="curve" smooth="yes"/>
      <point x="100" y="500"/>
      <point x="22" y="403"/>
    </contour>
  </outline>
</glyph>
<glyph name="semicolon" format="1">
  <advance width="134"/>
  <unicode hex="003B"/>
  <outline>
    <contour>
      <point x="37" y="60" type="line" name="hr00"/>
      <point x="37" y="0" type="line" smooth="yes"/>
      <point x="37" y="-24"/>
      <point x="23" y="-51"/>
      <point x="8" y="-72" type="curve" smooth="yes"/>
      <point x="-1" y="-84"/>
      <point x="-10" y="-96"/>
      <point x="-21" y="-108" type="curve"/>
      <point x="27" y="-108" type="line"/>
      <point x="40" y="-99"/>
      <point x="51" y="-88"/>
      <point x="62" y="-76" type="curve" smooth="yes"/>
      <point x="79" y="-56"/>
      <point x="97" y="-29"/>
      <point x="97" y="0" type="curve" smooth="yes"/>
      <point x="97" y="60" type="line"/>
    </contour>
    <contour>
      <point x="97" y="290" type="line"/>
      <point x="97" y="350" type="line"/>
      <point x="37" y="350" type="line"/>
      <point x="37" y="290" type="line"/>
    </contour>
  </outline>
</glyph>
<glyph name="less" format="1">
  <advance width="361"/>
  <unicode hex="003C"/>
  <outline>
    <contour>
      <point x="102" y="165" type="line" name="hr00"/>
      <point x="354" y="308" type="line"/>
      <point x="354" y="364" type="line"/>
      <point x="22" y="178" type="line"/>
      <point x="22" y="152" type="line"/>
      <point x="354" y="-12" type="line"/>
      <point x="354" y="42" type="line"/>
    </contour>
  </outline>
</glyph>
<glyph name="greater" format="1">
  <advance width="361"/>
  <unicode hex="003E"/>
  <outline>
    <contour>
      <point x="339" y="152" type="line" name="hr00"/>
      <point x="339" y="178" type="line"/>
      <point x="7" y="364" type="line"/>
      <point x="7" y="308" type="line"/>
      <point x="259" y="165" type="line"/>
      <point x="7" y="42" type="line"/>
      <point x="7" y="-12" type="line"/>
    </contour>
  </outline>
</glyph>
<glyph name="question" format="1">
  <advance width="314"/>
  <unicode hex="003F"/>
  <outline>
    <contour>
      <point x="157" y="120" type="line" name="hr00"/>
      <point x="157" y="216" type="line" smooth="yes"/>
      <point x="157" y="273"/>
      <point x="277" y="286"/>
      <point x="277" y="390" type="curve" smooth="yes"/>
      <point x="277" y="463"/>
      <point x="213" y="500"/>
      <point x="148" y="500" type="curve" smooth="yes"/>
      <point x="107" y="500"/>
      <point x="81" y="491"/>
      <point x="62" y="480" type="curve" smooth="yes"/>
      <point x="51" y="474"/>
      <point x="43" y="467"/>
      <point x="37" y="460" type="curve"/>
      <point x="37" y="410" type="line"/>
      <point x="45" y="417"/>
      <point x="55" y="424"/>
      <point x="66" y="430" type="curve" smooth="yes"/>
      <point x="85" y="441"/>
      <point x="112" y="450"/>
      <point x="148" y="450" type="curve" smooth="yes"/>
      <point x="185" y="450"/>
      <point x="217" y="431"/>
      <point x="217" y="384" type="curve" smooth="yes"/>
      <point x="217" y="307"/>
      <point x="97" y="293"/>
      <point x="97" y="216" type="curve" smooth="yes"/>
      <point x="97" y="120" type="line"/>
    </contour>
    <contour>
      <point x="157" y="0" type="line"/>
      <point x="157" y="60" type="line"/>
      <point x="97" y="60" type="line"/>
      <point x="97" y="0" type="line"/>
    </contour>
  </outline>
</glyph>
<glyph name="G" format="1">
  <advance width="469"/>
  <unicode hex="0047"/>
  <outline>
    <contour>
      <point x="262" y="250" type="line" name="hr00"/>
      <point x="262" y="200" type="line"/>
      <point x="372" y="200" type="line"/>
      <point x="372" y="62" type="line"/>
      <point x="341" y="46"/>
      <point x="314" y="40"/>
      <point x="271" y="40" type="curve" smooth="yes"/>
      <point x="156" y="40"/>
      <point x="82" y="108"/>
      <point x="82" y="235" type="curve" smooth="yes"/>
      <point x="82" y="360"/>
      <point x="163" y="450"/>
      <point x="278" y="450" type="curve" smooth="yes"/>
      <point x="330" y="450"/>
      <point x="366" y="442"/>
      <point x="389" y="435" type="curve" smooth="yes"/>
      <point x="402" y="430"/>
      <point x="413" y="425"/>
      <point x="422" y="420" type="curve"/>
      <point x="422" y="470" type="line"/>
      <point x="413" y="475"/>
      <point x="403" y="480"/>
      <point x="390" y="485" type="curve" smooth="yes"/>
      <point x="367" y="492"/>
      <point x="333" y="500"/>
      <point x="284" y="500" type="curve" smooth="yes"/>
      <point x="135" y="500"/>
      <point x="22" y="391"/>
      <point x="22" y="235" type="curve" smooth="yes"/>
      <point x="22" y="83"/>
      <point x="123" y="-8"/>
      <point x="264" y="-8" type="curve" smooth="yes"/>
      <point x="328" y="-8"/>
      <point x="381" y="-1"/>
      <point x="432" y="26" type="curve"/>
      <point x="432" y="250" type="line"/>
    </contour>
  </outline>
</glyph>
<glyph name="N" format="1">
  <advance width="474"/>
  <unicode hex="004E"/>
  <outline>
    <contour>
      <point x="377" y="490" type="line" name="hr00"/>
      <point x="377" y="78" type="line"/>
      <point x="112" y="490" type="line"/>
      <point x="37" y="490" type="line"/>
      <point x="37" y="0" type="line"/>
      <point x="97" y="0" type="line"/>
      <point x="97" y="407" type="line"/>
      <point x="362" y="0" type="line"/>
      <point x="437" y="0" type="line"/>
      <point x="437" y="490" type="line"/>
    </contour>
  </outline>
</glyph>
<glyph name="O" format="1">
  <advance width="514"/>
  <unicode hex="004F"/>
  <outline>
    <contour>
      <point x="251" y="-8" type="curve" smooth="yes" name="hr00"/>
      <point x="399" y="-8"/>
      <point x="492" y="85"/>
      <point x="492" y="249" type="curve" smooth="yes"/>
      <point x="492" y="400"/>
      <point x="400" y="500"/>
      <point x="261" y="500" type="curve" smooth="yes"/>
      <point x="112" y="500"/>
      <point x="22" y="401"/>
      <point x="22" y="238" type="curve" smooth="yes"/>
      <point x="22" y="86"/>
      <point x="111" y="-8"/>
    </contour>
    <contour>
      <point x="251" y="40" type="curve" smooth="yes"/>
      <point x="147" y="40"/>
      <point x="82" y="117"/>
      <point x="82" y="238" type="curve" smooth="yes"/>
      <point x="82" y="370"/>
      <point x="148" y="450"/>
      <point x="261" y="450" type="curve" smooth="yes"/>
      <point x="362" y="450"/>
      <point x="432" y="370"/>
      <point x="432" y="249" type="curve" smooth="yes"/>
      <point x="432" y="116"/>
      <point x="363" y="40"/>
    </contour>
  </outline>
</glyph>
<glyph name="U" format="1">
  <advance width="444"/>
  <unicode hex="0055"/>
  <outline>
    <contour>
      <point x="347" y="490" type="line" name="hr00"/>
      <point x="347" y="184" type="line" smooth="yes"/>
      <point x="347" y="85"/>
      <point x="301" y="40"/>
      <point x="217" y="40" type="curve" smooth="yes"/>
      <point x="130" y="40"/>
      <point x="97" y="90"/>
      <point x="97" y="190" type="curve" smooth="yes"/>
      <point x="97" y="490" type="line"/>
      <point x="37" y="490" type="line"/>
      <point x="37" y="186" type="line" smooth="yes"/>
      <point x="37" y="53"/>
      <point x="97" y="-8"/>
      <point x="217" y="-8" type="curve" smooth="yes"/>
      <point x="342" y="-8"/>
      <point x="407" y="54"/>
      <point x="407" y="193" type="curve" smooth="yes"/>
      <point x="407" y="490" type="line"/>
    </contour>
  </outline>
</glyph>
<glyph name="W" format="1">
  <advance width="644"/>
  <unicode hex="0057"/>
  <outline>
    <contour>
      <point x="452" y="70" type="line" name="hr00"/>
      <point x="347" y="490" type="line"/>
      <point x="307" y="490" type="line"/>
      <point x="182" y="70" type="line"/>
      <point x="67" y="490" type="line"/>
      <point x="7" y="490" type="line"/>
      <point x="147" y="0" type="line"/>
      <point x="217" y="0" type="line"/>
      <point x="327" y="390" type="line"/>
      <point x="417" y="0" type="line"/>
      <point x="487" y="0" type="line"/>
      <point x="637" y="490" type="line"/>
      <point x="577" y="490" type="line"/>
    </contour>
  </outline>
</glyph>
<glyph name="bracketleft" format="1">
  <advance width="196"/>
  <unicode hex="005B"/>
  <outline>
    <contour>
      <point x="189" y="-139" type="line" name="hr00"/>
      <point x="189" y="-90" type="line"/>
      <point x="91" y="-90" type="line"/>
      <point x="91" y="476" type="line"/>
      <point x="189" y="476" type="line"/>
      <point x="189" y="525" type="line"/>
      <point x="37" y="525" type="line"/>
      <point x="37" y="-139" type="line"/>
    </contour>
  </outline>
</glyph>
<glyph name="bracketright" format="1">
  <advance width="196"/>
  <unicode hex="005D"/>
  <outline>
    <contour>
      <point x="7" y="525" type="line" name="hr00"/>
      <point x="7" y="476" type="line"/>
      <point x="105" y="476" type="line"/>
      <point x="105" y="-90" type="line"/>
      <point x="7" y="-90" type="line"/>
      <point x="7" y="-139" type="line"/>
      <point x="159" y="-139" type="line"/>
      <point x="159" y="525" type="line"/>
    </contour>
  </outline>
</glyph>
<glyph name="grave" format="1">
  <advance width="212"/>
  <unicode hex="0060"/>
  <outline>
    <contour>
      <point x="37" y="551" type="line" name="hr00"/>
      <point x="125" y="440" type="line"/>
      <point x="175" y="440" type="line"/>
      <point x="97" y="551" type="line"/>
    </contour>
  </outline>
</glyph>
<glyph name="b" format="1">
  <advance width="404"/>
  <unicode hex="0062"/>
  <outline>
    <contour>
      <point x="92" y="95" type="curve" name="hr00"/>
      <point x="92" y="265" type="line"/>
      <point x="103" y="275"/>
      <point x="114" y="284"/>
      <point x="126" y="292" type="curve" smooth="yes"/>
      <point x="147" y="307"/>
      <point x="177" y="320"/>
      <point x="212" y="320" type="curve" smooth="yes"/>
      <point x="262" y="320"/>
      <point x="327" y="270"/>
      <point x="327" y="186" type="curve" smooth="yes"/>
      <point x="327" y="80"/>
      <point x="262" y="40"/>
      <point x="212" y="40" type="curve" smooth="yes"/>
      <point x="177" y="40"/>
      <point x="147" y="52"/>
      <point x="126" y="67" type="curve" smooth="yes"/>
      <point x="114" y="75"/>
      <point x="103" y="84"/>
    </contour>
    <contour>
      <point x="92" y="0" type="line"/>
      <point x="92" y="50" type="line"/>
      <point x="100" y="39"/>
      <point x="110" y="30"/>
      <point x="122" y="23" type="curve" smooth="yes"/>
      <point x="142" y="10"/>
      <point x="172" y="-3"/>
      <point x="212" y="-3" type="curve" smooth="yes"/>
      <point x="292" y="-3"/>
      <point x="382" y="50"/>
      <point x="382" y="186" type="curve" smooth="yes"/>
      <point x="382" y="310"/>
      <point x="282" y="365"/>
      <point x="212" y="365" type="curve" smooth="yes"/>
      <point x="172" y="365"/>
      <point x="142" y="352"/>
      <point x="122" y="337" type="curve" smooth="yes"/>
      <point x="110" y="329"/>
      <point x="100" y="320"/>
      <point x="92" y="310" type="curve"/>
      <point x="92" y="520" type="line"/>
      <point x="37" y="520" type="line"/>
      <point x="37" y="0" type="line"/>
    </contour>
  </outline>
</glyph>
<glyph name="g" format="1">
  <advance width="404"/>
  <unicode hex="0067"/>
  <outline>
    <contour>
      <point x="312" y="360" type="line" name="hr00"/>
      <point x="312" y="310" type="line"/>
      <point x="304" y="320"/>
      <point x="294" y="329"/>
      <point x="282" y="337" type="curve" smooth="yes"/>
      <point x="262" y="352"/>
      <point x="232" y="365"/>
      <point x="192" y="365" type="curve" smooth="yes"/>
      <point x="112" y="365"/>
      <point x="22" y="310"/>
      <point x="22" y="174" type="curve" smooth="yes"/>
      <point x="22" y="50"/>
      <point x="122" y="-3"/>
      <point x="192" y="-3" type="curve" smooth="yes"/>
      <point x="232" y="-3"/>
      <point x="262" y="10"/>
      <point x="282" y="23" type="curve" smooth="yes"/>
      <point x="294" y="30"/>
      <point x="304" y="39"/>
      <point x="312" y="50" type="curve"/>
      <point x="312" y="1" type="line" smooth="yes"/>
      <point x="312" y="-91"/>
      <point x="266" y="-128"/>
      <point x="177" y="-128" type="curve" smooth="yes"/>
      <point x="142" y="-128"/>
      <point x="117" y="-120"/>
      <point x="101" y="-111" type="curve" smooth="yes"/>
      <point x="92" y="-106"/>
      <point x="84" y="-100"/>
      <point x="77" y="-93" type="curve"/>
      <point x="57" y="-138" type="line"/>
      <point x="65" y="-145"/>
      <point x="75" y="-151"/>
      <point x="87" y="-156" type="curve" smooth="yes"/>
      <point x="107" y="-165"/>
      <point x="137" y="-173"/>
      <point x="177" y="-173" type="curve" smooth="yes"/>
      <point x="308" y="-173"/>
      <point x="367" y="-118"/>
      <point x="367" y="11" type="curve" smooth="yes"/>
      <point x="367" y="360" type="line"/>
    </contour>
    <contour>
      <point x="312" y="265" type="curve"/>
      <point x="312" y="95" type="line"/>
      <point x="301" y="84"/>
      <point x="290" y="75"/>
      <point x="278" y="67" type="curve" smooth="yes"/>
      <point x="257" y="52"/>
      <point x="227" y="40"/>
      <point x="192" y="40" type="curve" smooth="yes"/>
      <point x="142" y="40"/>
      <point x="77" y="90"/>
      <point x="77" y="174" type="curve" smooth="yes"/>
      <point x="77" y="280"/>
      <point x="142" y="320"/>
      <point x="192" y="320" type="curve" smooth="yes"/>
      <point x="227" y="320"/>
      <point x="257" y="307"/>
      <point x="278" y="292" type="curve" smooth="yes"/>
      <point x="290" y="284"/>
      <point x="301" y="275"/>
    </contour>
  </outline>
</glyph>
<glyph name="n" format="1">
  <advance width="374"/>
  <unicode hex="006E"/>
  <outline>
    <contour>
      <point x="337" y="0" type="line" name="hr00"/>
      <point x="337" y="233" type="line" smooth="yes"/>
      <point x="337" y="308"/>
      <point x="299" y="365"/>
      <point x="202" y="365" type="curve" smooth="yes"/>
      <point x="162" y="365"/>
      <point x="136" y="348"/>
      <point x="117" y="332" type="curve" smooth="yes"/>
      <point x="106" y="323"/>
      <point x="98" y="312"/>
      <point x="92" y="300" type="curve"/>
      <point x="92" y="360" type="line"/>
      <point x="37" y="360" type="line"/>
      <point x="37" y="0" type="line"/>
      <point x="92" y="0" type="line"/>
      <point x="92" y="255" type="line"/>
      <point x="99" y="266"/>
      <point x="107" y="276"/>
      <point x="116" y="285" type="curve" smooth="yes"/>
      <point x="132" y="300"/>
      <point x="157" y="315"/>
      <point x="192" y="315" type="curve" smooth="yes"/>
      <point x="243" y="315"/>
      <point x="282" y="284"/>
      <point x="282" y="236" type="curve" smooth="yes"/>
      <point x="282" y="0" type="line"/>
    </contour>
  </outline>
</glyph>
<glyph name="o" format="1">
  <advance width="393"/>
  <unicode hex="006F"/>
  <outline>
    <contour>
      <point x="193" y="-3" type="curve" smooth="yes" name="hr00"/>
      <point x="304" y="-3"/>
      <point x="371" y="62"/>
      <point x="371" y="183" type="curve" smooth="yes"/>
      <point x="371" y="296"/>
      <point x="304" y="365"/>
      <point x="200" y="365" type="curve" smooth="yes"/>
      <point x="89" y="365"/>
      <point x="22" y="296"/>
      <point x="22" y="175" type="curve" smooth="yes"/>
      <point x="22" y="62"/>
      <point x="89" y="-3"/>
    </contour>
    <contour>
      <point x="193" y="40" type="curve" smooth="yes"/>
      <point x="122" y="40"/>
      <point x="77" y="90"/>
      <point x="77" y="175" type="curve" smooth="yes"/>
      <point x="77" y="267"/>
      <point x="124" y="320"/>
      <point x="200" y="320" type="curve" smooth="yes"/>
      <point x="271" y="320"/>
      <point x="316" y="267"/>
      <point x="316" y="183" type="curve" smooth="yes"/>
      <point x="316" y="91"/>
      <point x="269" y="40"/>
    </contour>
  </outline>
</glyph>
<glyph name="w" format="1">
  <advance width="519"/>
  <unicode hex="0077"/>
  <outline>
    <contour>
      <point x="367" y="65" type="line" name="hr00"/>
      <point x="282" y="360" type="line"/>
      <point x="242" y="360" type="line"/>
      <point x="147" y="65" type="line"/>
      <point x="72" y="360" type="line"/>
      <point x="7" y="360" type="line"/>
      <point x="107" y="0" type="line"/>
      <point x="172" y="0" type="line"/>
      <point x="262" y="285" type="line"/>
      <point x="342" y="0" type="line"/>
      <point x="402" y="0" type="line"/>
      <point x="512" y="360" type="line"/>
      <point x="452" y="360" type="line"/>
    </contour>
  </outline>
</glyph>
<glyph name="asciitilde" format="1">
  <advance width="373"/>
  <unicode hex="007E"/>
  <outline>
    <contour>
      <point x="336" y="259" type="curve" name="hr00"/>
      <point x="294" y="259" type="line"/>
      <point x="291" y="224"/>
      <point x="276" y="206"/>
      <point x="255" y="206" type="curve" smooth="yes"/>
      <point x="205" y="206"/>
      <point x="171" y="259"/>
      <point x="121" y="259" type="curve" smooth="yes"/>
      <point x="68" y="259"/>
      <point x="37" y="220"/>
      <point x="37" y="165" type="curve"/>
      <point x="78" y="165" type="line"/>
      <point x="78" y="200"/>
      <point x="92" y="217"/>
      <point x="121" y="217" type="curve" smooth="yes"/>
      <point x="164" y="217"/>
      <point x="198" y="165"/>
      <point x="251" y="165" type="curve" smooth="yes"/>
      <point x="303" y="165"/>
      <point x="333" y="195"/>
    </contour>
  </outline>
</glyph>
<glyph name="registered" format="1">
  <advance width="657"/>
  <unicode hex="00AE"/>
  <outline>
    <contour>
      <point x="261" y="399" type="line" name="hr00"/>
      <point x="325" y="399" type="line" smooth="yes"/>
      <point x="376" y="399"/>
      <point x="406" y="372"/>
      <point x="406" y="332" type="curve" smooth="yes"/>
      <point x="406" y="280"/>
      <point x="361" y="254"/>
      <point x="314" y="254" type="curve" smooth="yes"/>
      <point x="261" y="254" type="line"/>
    </contour>
    <contour>
      <point x="479" y="70" type="line"/>
      <point x="409" y="179" type="line"/>
      <point x="398" y="198"/>
      <point x="377" y="222"/>
      <point x="353" y="235" type="curve"/>
      <point x="399" y="243"/>
      <point x="440" y="268"/>
      <point x="440" y="332" type="curve" smooth="yes"/>
      <point x="440" y="395"/>
      <point x="393" y="427"/>
      <point x="334" y="427" type="curve" smooth="yes"/>
      <point x="227" y="427" type="line"/>
      <point x="227" y="70" type="line"/>
      <point x="261" y="70" type="line"/>
      <point x="261" y="227" type="line"/>
      <point x="302" y="227" type="line" smooth="yes"/>
      <point x="321" y="227"/>
      <point x="357" y="204"/>
      <point x="378" y="169" type="curve" smooth="yes"/>
      <point x="438" y="70" type="line"/>
    </contour>
    <contour>
      <point x="37" y="242" type="curve" smooth="yes"/>
      <point x="37" y="80"/>
      <point x="167" y="-47"/>
      <point x="329" y="-47" type="curve" smooth="yes"/>
      <point x="492" y="-47"/>
      <point x="620" y="80"/>
      <point x="620" y="242" type="curve" smooth="yes"/>
      <point x="620" y="405"/>
      <point x="492" y="533"/>
      <point x="329" y="533" type="curve" smooth="yes"/>
      <point x="167" y="533"/>
      <point x="37" y="405"/>
    </contour>
    <contour>
      <point x="67" y="242" type="curve" smooth="yes"/>
      <point x="67" y="387"/>
      <point x="184" y="503"/>
      <point x="329" y="503" type="curve" smooth="yes"/>
      <point x="474" y="503"/>
      <point x="590" y="387"/>
      <point x="590" y="242" type="curve" smooth="yes"/>
      <point x="590" y="97"/>
      <point x="474" y="-17"/>
      <point x="329" y="-17" type="curve" smooth="yes"/>
      <point x="184" y="-17"/>
      <point x="67" y="97"/>
    </contour>
  </outline>
</glyph>
<glyph name="uni0E03" format="1">
  <advance width="359"/>
  <unicode hex="0E03"/>
    <anchor name="b.uni0E38" x="292" y="-75"/>
  <outline>
    <contour>
      <point x="112" y="140" type="curve" smooth="yes" name="hr00"/>
      <point x="112" y="190" type="line" smooth="yes"/>
      <point x="112" y="230"/>
      <point x="142" y="260"/>
      <point x="152" y="270" type="curve" smooth="yes"/>
      <point x="172" y="290"/>
      <point x="192" y="310"/>
      <point x="192" y="350" type="curve" smooth="yes"/>
      <point x="192" y="401"/>
      <point x="162" y="430"/>
      <point x="122" y="430" type="curve" smooth="yes"/>
      <point x="107" y="430"/>
      <point x="94" y="422"/>
      <point x="83" y="415" type="curve" smooth="yes"/>
      <point x="77" y="410"/>
      <point x="72" y="405"/>
      <point x="67" y="400" type="curve"/>
      <point x="52" y="415" type="line"/>
      <point x="43" y="422"/>
      <point x="33" y="430"/>
      <point x="22" y="430" type="curve"/>
      <point x="22" y="381" type="line"/>
      <point x="31" y="381"/>
      <point x="41" y="373"/>
      <point x="49" y="365" type="curve" smooth="yes"/>
      <point x="54" y="360"/>
      <point x="58" y="355"/>
      <point x="62" y="350" type="curve"/>
      <point x="67" y="355"/>
      <point x="71" y="360"/>
      <point x="76" y="365" type="curve" smooth="yes"/>
      <point x="84" y="372"/>
      <point x="94" y="380"/>
      <point x="102" y="380" type="curve" smooth="yes"/>
      <point x="117" y="380"/>
      <point x="132" y="370"/>
      <point x="132" y="350" type="curve" smooth="yes"/>
      <point x="132" y="319"/>
      <point x="113" y="311"/>
      <point x="102" y="300" type="curve" smooth="yes"/>
      <point x="71" y="269"/>
      <point x="52" y="230"/>
      <point x="52" y="190" type="curve" smooth="yes"/>
      <point x="52" y="140" type="line" smooth="yes"/>
      <point x="52" y="60"/>
      <point x="83" y="-8"/>
      <point x="187" y="-8" type="curve" smooth="yes"/>
      <point x="291" y="-8"/>
      <point x="322" y="60"/>
      <point x="322" y="147" type="curve" smooth="yes"/>
      <point x="322" y="430" type="line"/>
      <point x="262" y="430" type="line"/>
      <point x="262" y="143" type="line" smooth="yes"/>
      <point x="262" y="99"/>
      <point x="247" y="40"/>
      <point x="187" y="40" type="curve" smooth="yes"/>
      <point x="124" y="40"/>
      <point x="112" y="89"/>
    </contour>
    <contour>
      <point x="292" y="-75" type="move" name="b.uni0E38"/>
    </contour>
  </outline>
</glyph>
<glyph name="uni0E04" format="1">
  <advance width="434"/>
  <unicode hex="0E04"/>
  <outline>
    <contour>
      <point x="97" y="180" type="curve" name="hr00"/>
      <point x="97" y="300" type="line" smooth="yes"/>
      <point x="97" y="360"/>
      <point x="157" y="390"/>
      <point x="217" y="390" type="curve" smooth="yes"/>
      <point x="277" y="390"/>
      <point x="337" y="360"/>
      <point x="337" y="300" type="curve" smooth="yes"/>
      <point x="337" y="0" type="line"/>
      <point x="397" y="0" type="line"/>
      <point x="397" y="300" type="line" smooth="yes"/>
      <point x="397" y="391"/>
      <point x="307" y="440"/>
      <point x="217" y="440" type="curve" smooth="yes"/>
      <point x="127" y="440"/>
      <point x="37" y="391"/>
      <point x="37" y="300" type="curve" smooth="yes"/>
      <point x="37" y="0" type="line"/>
      <point x="97" y="0" type="line"/>
      <point x="97" y="130" type="line"/>
      <point x="106" y="139"/>
      <point x="116" y="148"/>
      <point x="128" y="155" type="curve" smooth="yes"/>
      <point x="148" y="167"/>
      <point x="175" y="180"/>
      <point x="207" y="180" type="curve"/>
      <point x="207" y="240" type="line"/>
      <point x="175" y="240"/>
      <point x="148" y="225"/>
      <point x="128" y="210" type="curve" smooth="yes"/>
      <point x="116" y="201"/>
      <point x="106" y="191"/>
    </contour>
  </outline>
</glyph>
<glyph name="uni0E05" format="1">
  <advance width="434"/>
  <unicode hex="0E05"/>
  <outline>
    <contour>
      <point x="97" y="0" type="line" name="hr00"/>
      <point x="97" y="130" type="line"/>
      <point x="106" y="139"/>
      <point x="116" y="148"/>
      <point x="128" y="155" type="curve" smooth="yes"/>
      <point x="148" y="167"/>
      <point x="175" y="180"/>
      <point x="207" y="180" type="curve"/>
      <point x="207" y="240" type="line"/>
      <point x="175" y="240"/>
      <point x="148" y="225"/>
      <point x="128" y="210" type="curve" smooth="yes"/>
      <point x="116" y="201"/>
      <point x="106" y="191"/>
      <point x="97" y="180" type="curve"/>
      <point x="97" y="300" type="line" smooth="yes"/>
      <point x="97" y="340"/>
      <point x="116" y="390"/>
      <point x="157" y="390" type="curve" smooth="yes"/>
      <point x="168" y="390"/>
      <point x="181" y="375"/>
      <point x="194" y="360" type="curve" smooth="yes"/>
      <point x="201" y="351"/>
      <point x="209" y="341"/>
      <point x="217" y="330" type="curve"/>
      <point x="224" y="341"/>
      <point x="232" y="351"/>
      <point x="239" y="360" type="curve" smooth="yes"/>
      <point x="251" y="375"/>
      <point x="266" y="390"/>
      <point x="277" y="390" type="curve" smooth="yes"/>
      <point x="316" y="390"/>
      <point x="337" y="340"/>
      <point x="337" y="300" type="curve" smooth="yes"/>
      <point x="337" y="0" type="line"/>
      <point x="397" y="0" type="line"/>
      <point x="397" y="300" type="line" smooth="yes"/>
      <point x="397" y="370"/>
      <point x="346" y="440"/>
      <point x="277" y="440" type="curve" smooth="yes"/>
      <point x="262" y="440"/>
      <point x="247" y="427"/>
      <point x="236" y="415" type="curve" smooth="yes"/>
      <point x="229" y="408"/>
      <point x="223" y="399"/>
      <point x="217" y="390" type="curve"/>
      <point x="211" y="399"/>
      <point x="205" y="408"/>
      <point x="198" y="415" type="curve" smooth="yes"/>
      <point x="187" y="427"/>
      <point x="172" y="440"/>
      <point x="157" y="440" type="curve" smooth="yes"/>
      <point x="88" y="440"/>
      <point x="37" y="370"/>
      <point x="37" y="300" type="curve" smooth="yes"/>
      <point x="37" y="0" type="line"/>
    </contour>
  </outline>
</glyph>
<glyph name="uni0E06" format="1">
  <advance width="439"/>
  <unicode hex="0E06"/>
    <anchor name="b.uni0E38" x="363" y="-75"/>
  <outline>
    <contour>
      <point x="112" y="110" type="curve" name="hr00"/>
      <point x="112" y="190" type="line" smooth="yes"/>
      <point x="112" y="259"/>
      <point x="192" y="259"/>
      <point x="192" y="350" type="curve" smooth="yes"/>
      <point x="192" y="401"/>
      <point x="162" y="430"/>
      <point x="122" y="430" type="curve" smooth="yes"/>
      <point x="107" y="430"/>
      <point x="94" y="422"/>
      <point x="83" y="415" type="curve" smooth="yes"/>
      <point x="77" y="410"/>
      <point x="72" y="405"/>
      <point x="67" y="400" type="curve"/>
      <point x="52" y="415" type="line"/>
      <point x="43" y="422"/>
      <point x="31" y="430"/>
      <point x="22" y="430" type="curve"/>
      <point x="22" y="381" type="line"/>
      <point x="33" y="381"/>
      <point x="41" y="373"/>
      <point x="49" y="365" type="curve" smooth="yes"/>
      <point x="53" y="360"/>
      <point x="57" y="355"/>
      <point x="62" y="350" type="curve"/>
      <point x="67" y="355"/>
      <point x="71" y="360"/>
      <point x="76" y="365" type="curve" smooth="yes"/>
      <point x="84" y="372"/>
      <point x="94" y="380"/>
      <point x="102" y="380" type="curve" smooth="yes"/>
      <point x="117" y="380"/>
      <point x="132" y="370"/>
      <point x="132" y="350" type="curve" smooth="yes"/>
      <point x="132" y="280"/>
      <point x="52" y="289"/>
      <point x="52" y="196" type="curve" smooth="yes"/>
      <point x="52" y="0" type="line"/>
      <point x="112" y="0" type="line"/>
      <point x="112" y="60" type="line"/>
      <point x="122" y="47"/>
      <point x="134" y="36"/>
      <point x="149" y="26" type="curve" smooth="yes"/>
      <point x="174" y="9"/>
      <point x="211" y="-8"/>
      <point x="262" y="-8" type="curve" smooth="yes"/>
      <point x="353" y="-8"/>
      <point x="402" y="71"/>
      <point x="402" y="140" type="curve" smooth="yes"/>
      <point x="402" y="430" type="line"/>
      <point x="342" y="430" type="line"/>
      <point x="342" y="170" type="line" smooth="yes"/>
      <point x="342" y="90"/>
      <point x="312" y="50"/>
      <point x="232" y="50" type="curve" smooth="yes"/>
      <point x="197" y="50"/>
      <point x="167" y="65"/>
      <point x="146" y="80" type="curve" smooth="yes"/>
      <point x="134" y="89"/>
      <point x="123" y="99"/>
    </contour>
    <contour>
      <point x="363" y="-75" type="move" name="b.uni0E38"/>
    </contour>
  </outline>
</glyph>
<glyph name="uni0E0E" format="1">
  <advance width="429"/>
  <unicode hex="0E0E"/>
    <anchor name="b.uni0E38" x="392" y="-244"/>
  <outline>
    <contour>
      <point x="277" y="-117" type="curve" smooth="yes" name="hr00"/>
      <point x="252" y="-117"/>
      <point x="227" y="-105"/>
      <point x="208" y="-92" type="curve" smooth="yes"/>
      <point x="197" y="-85"/>
      <point x="186" y="-76"/>
      <point x="175" y="-67" type="curve"/>
      <point x="164" y="-76"/>
      <point x="152" y="-85"/>
      <point x="138" y="-92" type="curve" smooth="yes"/>
      <point x="114" y="-105"/>
      <point x="77" y="-117"/>
      <point x="32" y="-117" type="curve"/>
      <point x="32" y="-167" type="line"/>
      <point x="77" y="-167"/>
      <point x="114" y="-155"/>
      <point x="138" y="-142" type="curve" smooth="yes"/>
      <point x="152" y="-135"/>
      <point x="164" y="-126"/>
      <point x="175" y="-117" type="curve"/>
      <point x="184" y="-126"/>
      <point x="195" y="-135"/>
      <point x="207" y="-142" type="curve" smooth="yes"/>
      <point x="227" y="-155"/>
      <point x="255" y="-167"/>
      <point x="286" y="-167" type="curve" smooth="yes"/>
      <point x="386" y="-167"/>
      <point x="392" y="-98"/>
      <point x="392" y="-67" type="curve" smooth="yes"/>
      <point x="392" y="300" type="line" smooth="yes"/>
      <point x="392" y="400"/>
      <point x="287" y="440"/>
      <point x="197" y="440" type="curve" smooth="yes"/>
      <point x="133" y="440"/>
      <point x="91" y="412"/>
      <point x="63" y="385" type="curve" smooth="yes"/>
      <point x="46" y="368"/>
      <point x="33" y="350"/>
      <point x="22" y="330" type="curve"/>
      <point x="22" y="329"/>
      <point x="37" y="317"/>
      <point x="52" y="305" type="curve" smooth="yes"/>
      <point x="61" y="298"/>
      <point x="71" y="289"/>
      <point x="82" y="280" type="curve"/>
      <point x="78" y="274"/>
      <point x="75" y="267"/>
      <point x="72" y="259" type="curve" smooth="yes"/>
      <point x="67" y="244"/>
      <point x="62" y="225"/>
      <point x="62" y="200" type="curve" smooth="yes"/>
      <point x="62" y="70" type="line" smooth="yes"/>
      <point x="62" y="59"/>
      <point x="63" y="51"/>
      <point x="52" y="50" type="curve"/>
      <point x="22" y="50" type="line"/>
      <point x="22" y="0" type="line"/>
      <point x="62" y="0" type="line" smooth="yes"/>
      <point x="102" y="0"/>
      <point x="122" y="19"/>
      <point x="122" y="70" type="curve" smooth="yes"/>
      <point x="122" y="200" type="line" smooth="yes"/>
      <point x="122" y="231"/>
      <point x="127" y="249"/>
      <point x="132" y="262" type="curve" smooth="yes"/>
      <point x="135" y="269"/>
      <point x="138" y="275"/>
      <point x="142" y="280" type="curve"/>
      <point x="82" y="330" type="line"/>
      <point x="90" y="341"/>
      <point x="100" y="351"/>
      <point x="111" y="360" type="curve" smooth="yes"/>
      <point x="130" y="375"/>
      <point x="158" y="390"/>
      <point x="197" y="390" type="curve" smooth="yes"/>
      <point x="257" y="390"/>
      <point x="332" y="371"/>
      <point x="332" y="280" type="curve" smooth="yes"/>
      <point x="332" y="-57" type="line" smooth="yes"/>
      <point x="332" y="-98"/>
      <point x="320" y="-117"/>
    </contour>
    <contour>
      <point x="392" y="-244" type="move" name="b.uni0E38"/>
    </contour>
  </outline>
</glyph>
<glyph name="uni0E10" format="1">
  <advance width="414"/>
  <unicode hex="0E10"/>
  <outline>
    <contour>
      <point x="152" y="0" type="line" name="hr00"/>
      <point x="202" y="0" type="line" smooth="yes"/>
      <point x="322" y="0"/>
      <point x="392" y="100"/>
      <point x="392" y="225" type="curve" smooth="yes"/>
      <point x="392" y="296"/>
      <point x="362" y="360"/>
      <point x="309" y="400" type="curve"/>
      <point x="345" y="410"/>
      <point x="392" y="437"/>
      <point x="392" y="490" type="curve"/>
      <point x="332" y="490" type="line"/>
      <point x="332" y="454"/>
      <point x="290" y="434"/>
      <point x="262" y="426" type="curve"/>
      <point x="237" y="435"/>
      <point x="211" y="440"/>
      <point x="182" y="440" type="curve" smooth="yes"/>
      <point x="117" y="440"/>
      <point x="77" y="418"/>
      <point x="53" y="395" type="curve" smooth="yes"/>
      <point x="39" y="382"/>
      <point x="29" y="367"/>
      <point x="22" y="350" type="curve"/>
      <point x="42" y="300" type="line"/>
      <point x="50" y="317"/>
      <point x="61" y="332"/>
      <point x="74" y="345" type="curve" smooth="yes"/>
      <point x="97" y="368"/>
      <point x="131" y="390"/>
      <point x="182" y="390" type="curve" smooth="yes"/>
      <point x="252" y="390"/>
      <point x="332" y="340"/>
      <point x="332" y="225" type="curve" smooth="yes"/>
      <point x="332" y="140"/>
      <point x="290" y="50"/>
      <point x="202" y="50" type="curve"/>
      <point x="162" y="190" type="line"/>
      <point x="154" y="210"/>
      <point x="143" y="220"/>
      <point x="112" y="220" type="curve" smooth="yes"/>
      <point x="72" y="220" type="line"/>
      <point x="72" y="170" type="line"/>
      <point x="92" y="170" type="line" smooth="yes"/>
      <point x="103" y="170"/>
      <point x="108" y="171"/>
      <point x="112" y="160" type="curve"/>
    </contour>
    <contour>
      <point x="312" y="-68" type="line"/>
      <point x="312" y="-118" type="line" smooth="yes"/>
      <point x="312" y="-128"/>
      <point x="312" y="-158"/>
      <point x="272" y="-158" type="curve" smooth="yes"/>
      <point x="233" y="-158"/>
      <point x="202" y="-111"/>
      <point x="202" y="-108" type="curve"/>
      <point x="167" y="-158" type="line"/>
      <point x="132" y="-108" type="line"/>
      <point x="125" y="-117"/>
      <point x="117" y="-126"/>
      <point x="108" y="-133" type="curve" smooth="yes"/>
      <point x="92" y="-146"/>
      <point x="67" y="-158"/>
      <point x="32" y="-158" type="curve"/>
      <point x="32" y="-208" type="line"/>
      <point x="67" y="-208"/>
      <point x="92" y="-196"/>
      <point x="108" y="-183" type="curve" smooth="yes"/>
      <point x="117" y="-176"/>
      <point x="125" y="-167"/>
      <point x="132" y="-158" type="curve"/>
      <point x="167" y="-208" type="line"/>
      <point x="202" y="-158" type="line"/>
      <point x="207" y="-167"/>
      <point x="213" y="-176"/>
      <point x="220" y="-183" type="curve" smooth="yes"/>
      <point x="233" y="-196"/>
      <point x="251" y="-208"/>
      <point x="282" y="-208" type="curve" smooth="yes"/>
      <point x="372" y="-208"/>
      <point x="372" y="-129"/>
      <point x="372" y="-118" type="curve" smooth="yes"/>
      <point x="372" y="-68" type="line"/>
    </contour>
  </outline>
</glyph>
<glyph name="uni0E12" format="1">
  <advance width="689"/>
  <unicode hex="0E12"/>
    <anchor name="b.uni0E38" x="626" y="-75"/>
  <outline>
    <contour>
      <point x="592" y="430" type="line" name="hr00"/>
      <point x="592" y="170" type="line" smooth="yes"/>
      <point x="592" y="90"/>
      <point x="582" y="50"/>
      <point x="502" y="50" type="curve" smooth="yes"/>
      <point x="467" y="50"/>
      <point x="440" y="65"/>
      <point x="421" y="80" type="curve" smooth="yes"/>
      <point x="410" y="89"/>
      <point x="400" y="99"/>
      <point x="392" y="110" type="curve"/>
      <point x="392" y="308" type="line" smooth="yes"/>
      <point x="392" y="377"/>
      <point x="341" y="440"/>
      <point x="272" y="440" type="curve" smooth="yes"/>
      <point x="261" y="440"/>
      <point x="246" y="427"/>
      <point x="234" y="415" type="curve" smooth="yes"/>
      <point x="227" y="408"/>
      <point x="219" y="399"/>
      <point x="212" y="390" type="curve"/>
      <point x="204" y="399"/>
      <point x="196" y="408"/>
      <point x="189" y="415" type="curve" smooth="yes"/>
      <point x="176" y="427"/>
      <point x="163" y="440"/>
      <point x="152" y="440" type="curve" smooth="yes"/>
      <point x="83" y="440"/>
      <point x="22" y="378"/>
      <point x="22" y="220" type="curve" smooth="yes"/>
      <point x="22" y="90"/>
      <point x="82" y="-8"/>
      <point x="192" y="-8" type="curve" smooth="yes"/>
      <point x="207" y="-8"/>
      <point x="215" y="-7"/>
      <point x="222" y="-4" type="curve" smooth="yes"/>
      <point x="225" y="-3"/>
      <point x="229" y="-1"/>
      <point x="232" y="0" type="curve"/>
      <point x="232" y="50" type="line"/>
      <point x="229" y="48"/>
      <point x="225" y="46"/>
      <point x="222" y="45" type="curve" smooth="yes"/>
      <point x="215" y="42"/>
      <point x="207" y="40"/>
      <point x="192" y="40" type="curve" smooth="yes"/>
      <point x="112" y="40"/>
      <point x="82" y="120"/>
      <point x="82" y="220" type="curve" smooth="yes"/>
      <point x="82" y="350"/>
      <point x="122" y="390"/>
      <point x="152" y="390" type="curve" smooth="yes"/>
      <point x="163" y="390"/>
      <point x="176" y="375"/>
      <point x="189" y="360" type="curve" smooth="yes"/>
      <point x="196" y="351"/>
      <point x="204" y="341"/>
      <point x="212" y="330" type="curve"/>
      <point x="219" y="341"/>
      <point x="227" y="351"/>
      <point x="234" y="360" type="curve" smooth="yes"/>
      <point x="246" y="375"/>
      <point x="261" y="390"/>
      <point x="272" y="390" type="curve" smooth="yes"/>
      <point x="309" y="390"/>
      <point x="332" y="351"/>
      <point x="332" y="308" type="curve" smooth="yes"/>
      <point x="332" y="0" type="line"/>
      <point x="392" y="0" type="line"/>
      <point x="392" y="60" type="line"/>
      <point x="400" y="47"/>
      <point x="411" y="36"/>
      <point x="424" y="26" type="curve" smooth="yes"/>
      <point x="447" y="9"/>
      <point x="481" y="-8"/>
      <point x="532" y="-8" type="curve" smooth="yes"/>
      <point x="623" y="-8"/>
      <point x="652" y="71"/>
      <point x="652" y="140" type="curve" smooth="yes"/>
      <point x="652" y="430" type="line"/>
    </contour>
    <contour>
      <point x="626" y="-75" type="move" name="b.uni0E38"/>
    </contour>
  </outline>
</glyph>
<glyph name="uni0E13" format="1">
  <advance width="689"/>
  <unicode hex="0E13"/>
  <outline>
    <contour>
      <point x="392" y="170" type="curve" smooth="yes" name="hr00"/>
      <point x="392" y="300" type="line" smooth="yes"/>
      <point x="392" y="400"/>
      <point x="287" y="440"/>
      <point x="197" y="440" type="curve" smooth="yes"/>
      <point x="133" y="440"/>
      <point x="91" y="412"/>
      <point x="63" y="385" type="curve" smooth="yes"/>
      <point x="46" y="368"/>
      <point x="33" y="350"/>
      <point x="22" y="330" type="curve"/>
      <point x="22" y="329"/>
      <point x="37" y="317"/>
      <point x="52" y="305" type="curve" smooth="yes"/>
      <point x="61" y="298"/>
      <point x="71" y="289"/>
      <point x="82" y="280" type="curve"/>
      <point x="78" y="274"/>
      <point x="75" y="267"/>
      <point x="72" y="259" type="curve" smooth="yes"/>
      <point x="67" y="244"/>
      <point x="62" y="225"/>
      <point x="62" y="200" type="curve" smooth="yes"/>
      <point x="62" y="70" type="line" smooth="yes"/>
      <point x="62" y="19"/>
      <point x="82" y="0"/>
      <point x="122" y="0" type="curve" smooth="yes"/>
      <point x="162" y="0" type="line"/>
      <point x="162" y="50" type="line"/>
      <point x="132" y="50" type="line"/>
      <point x="121" y="51"/>
      <point x="122" y="59"/>
      <point x="122" y="70" type="curve" smooth="yes"/>
      <point x="122" y="200" type="line" smooth="yes"/>
      <point x="122" y="231"/>
      <point x="127" y="249"/>
      <point x="132" y="262" type="curve" smooth="yes"/>
      <point x="135" y="269"/>
      <point x="138" y="275"/>
      <point x="142" y="280" type="curve"/>
      <point x="82" y="330" type="line"/>
      <point x="90" y="341"/>
      <point x="100" y="351"/>
      <point x="111" y="360" type="curve" smooth="yes"/>
      <point x="130" y="375"/>
      <point x="158" y="390"/>
      <point x="197" y="390" type="curve" smooth="yes"/>
      <point x="257" y="390"/>
      <point x="332" y="371"/>
      <point x="332" y="280" type="curve" smooth="yes"/>
      <point x="332" y="140" type="line" smooth="yes"/>
      <point x="332" y="71"/>
      <point x="361" y="-8"/>
      <point x="452" y="-8" type="curve" smooth="yes"/>
      <point x="503" y="-8"/>
      <point x="536" y="9"/>
      <point x="559" y="26" type="curve" smooth="yes"/>
      <point x="572" y="36"/>
      <point x="583" y="47"/>
      <point x="592" y="60" type="curve"/>
      <point x="592" y="0" type="line"/>
      <point x="652" y="0" type="line"/>
      <point x="652" y="430" type="line"/>
      <point x="592" y="430" type="line"/>
      <point x="592" y="110" type="line"/>
      <point x="584" y="99"/>
      <point x="574" y="89"/>
      <point x="563" y="80" type="curve" smooth="yes"/>
      <point x="544" y="65"/>
      <point x="517" y="50"/>
      <point x="482" y="50" type="curve" smooth="yes"/>
      <point x="402" y="50"/>
      <point x="392" y="90"/>
    </contour>
  </outline>
</glyph>
<glyph name="uni0E18" format="1">
  <advance width="424"/>
  <unicode hex="0E18"/>
    <anchor name="b.uni0E38" x="303" y="-75"/>
  <outline>
    <contour>
      <point x="377" y="351" type="curve" name="hr00"/>
      <point x="377" y="401" type="line"/>
      <point x="361" y="408"/>
      <point x="344" y="415"/>
      <point x="327" y="421" type="curve" smooth="yes"/>
      <point x="296" y="432"/>
      <point x="257" y="441"/>
      <point x="217" y="441" type="curve" smooth="yes"/>
      <point x="148" y="441"/>
      <point x="37" y="421"/>
      <point x="37" y="330" type="curve" smooth="yes"/>
      <point x="37" y="159"/>
      <point x="327" y="301"/>
      <point x="327" y="125" type="curve" smooth="yes"/>
      <point x="327" y="80"/>
      <point x="285" y="40"/>
      <point x="217" y="40" type="curve" smooth="yes"/>
      <point x="181" y="40"/>
      <point x="107" y="42"/>
      <point x="107" y="130" type="curve" smooth="yes"/>
      <point x="107" y="200" type="line"/>
      <point x="47" y="200" type="line"/>
      <point x="47" y="130" type="line" smooth="yes"/>
      <point x="47" y="-6"/>
      <point x="171" y="-8"/>
      <point x="217" y="-8" type="curve" smooth="yes"/>
      <point x="342" y="-8"/>
      <point x="387" y="60"/>
      <point x="387" y="125" type="curve" smooth="yes"/>
      <point x="387" y="350"/>
      <point x="97" y="220"/>
      <point x="97" y="330" type="curve" smooth="yes"/>
      <point x="97" y="390"/>
      <point x="177" y="391"/>
      <point x="217" y="391" type="curve" smooth="yes"/>
      <point x="257" y="391"/>
      <point x="296" y="382"/>
      <point x="327" y="371" type="curve" smooth="yes"/>
      <point x="344" y="365"/>
      <point x="361" y="358"/>
    </contour>
    <contour>
      <point x="303" y="-75" type="move" name="b.uni0E38"/>
    </contour>
  </outline>
</glyph>
<glyph name="uni0E1A" format="1">
  <advance width="414"/>
  <unicode hex="0E1A"/>
    <anchor name="b.uni0E38" x="303" y="-75"/>
  <outline>
    <contour>
      <point x="170" y="-8" type="curve" smooth="yes" name="hr00"/>
      <point x="240" y="-8" type="line" smooth="yes"/>
      <point x="331" y="-8"/>
      <point x="377" y="70"/>
      <point x="377" y="147" type="curve" smooth="yes"/>
      <point x="377" y="430" type="line"/>
      <point x="317" y="430" type="line"/>
      <point x="317" y="143" type="line" smooth="yes"/>
      <point x="317" y="99"/>
      <point x="289" y="40"/>
      <point x="226" y="40" type="curve" smooth="yes"/>
      <point x="184" y="40" type="line" smooth="yes"/>
      <point x="120" y="40"/>
      <point x="97" y="99"/>
      <point x="97" y="143" type="curve" smooth="yes"/>
      <point x="97" y="430" type="line"/>
      <point x="37" y="430" type="line"/>
      <point x="37" y="147" type="line" smooth="yes"/>
      <point x="37" y="70"/>
      <point x="79" y="-8"/>
    </contour>
    <contour>
      <point x="303" y="-75" type="move" name="b.uni0E38"/>
    </contour>
  </outline>
</glyph>
<glyph name="uni0E1B" format="1">
  <advance width="414"/>
  <unicode hex="0E1B"/>
    <anchor name="t.uni0E34" x="270" y="505"/>
    <anchor name="t.uni0E4D_1" x="275" y="505"/>
    <anchor name="t.uni0E31_2" x="308" y="505"/>
    <anchor name="t.uni0E47.sm_3" x="282" y="505"/>
    <anchor name="t.uni0E4C_4" x="214" y="505"/>
    <anchor name="t.uni0E4B_5" x="239" y="505"/>
    <anchor name="b.uni0E38" x="303" y="-75"/>
  <outline>
    <contour>
      <point x="170" y="-8" type="curve" smooth="yes" name="hr00"/>
      <point x="240" y="-8" type="line" smooth="yes"/>
      <point x="331" y="-8"/>
      <point x="377" y="70"/>
      <point x="377" y="147" type="curve" smooth="yes"/>
      <point x="377" y="560" type="line"/>
      <point x="317" y="560" type="line"/>
      <point x="317" y="143" type="line" smooth="yes"/>
      <point x="317" y="99"/>
      <point x="289" y="40"/>
      <point x="226" y="40" type="curve" smooth="yes"/>
      <point x="184" y="40" type="line" smooth="yes"/>
      <point x="120" y="40"/>
      <point x="97" y="99"/>
      <point x="97" y="143" type="curve" smooth="yes"/>
      <point x="97" y="430" type="line"/>
      <point x="37" y="430" type="line"/>
      <point x="37" y="147" type="line" smooth="yes"/>
      <point x="37" y="70"/>
      <point x="79" y="-8"/>
    </contour>
    <contour>
      <point x="270" y="505" type="move" name="t.uni0E34"/>
    </contour>
    <contour>
      <point x="275" y="505" type="move" name="t.uni0E4D_1"/>
    </contour>
    <contour>
      <point x="308" y="505" type="move" name="t.uni0E31_2"/>
    </contour>
    <contour>
      <point x="282" y="505" type="move" name="t.uni0E47.sm_3"/>
    </contour>
    <contour>
      <point x="214" y="505" type="move" name="t.uni0E4C_4"/>
    </contour>
    <contour>
      <point x="239" y="505" type="move" name="t.uni0E4B_5"/>
    </contour>
    <contour>
      <point x="303" y="-75" type="move" name="b.uni0E38"/>
    </contour>
  </outline>
</glyph>
<glyph name="uni0E1C" format="1">
  <advance width="500"/>
  <unicode hex="0E1C"/>
    <anchor name="b.uni0E38" x="376" y="-75"/>
  <outline>
    <contour>
      <point x="463" y="430" type="curve" name="hr00"/>
      <point x="403" y="430" type="line"/>
      <point x="396" y="305"/>
      <point x="381" y="223"/>
      <point x="368" y="172" type="curve" smooth="yes"/>
      <point x="360" y="141"/>
      <point x="352" y="117"/>
      <point x="343" y="100" type="curve"/>
      <point x="258" y="310" type="line"/>
      <point x="228" y="310" type="line"/>
      <point x="143" y="100" type="line"/>
      <point x="134" y="122"/>
      <point x="125" y="145"/>
      <point x="118" y="170" type="curve" smooth="yes"/>
      <point x="106" y="213"/>
      <point x="94" y="268"/>
      <point x="94" y="328" type="curve" smooth="yes"/>
      <point x="94" y="343"/>
      <point x="95" y="380"/>
      <point x="116" y="380" type="curve" smooth="yes"/>
      <point x="144" y="380" type="line"/>
      <point x="144" y="430" type="line"/>
      <point x="102" y="430" type="line" smooth="yes"/>
      <point x="46" y="430"/>
      <point x="37" y="371"/>
      <point x="37" y="329" type="curve" smooth="yes"/>
      <point x="37" y="246"/>
      <point x="56" y="166"/>
      <point x="75" y="103" type="curve" smooth="yes"/>
      <point x="86" y="66"/>
      <point x="99" y="32"/>
      <point x="113" y="0" type="curve"/>
      <point x="153" y="0" type="line"/>
      <point x="243" y="215" type="line"/>
      <point x="333" y="0" type="line"/>
      <point x="373" y="0" type="line"/>
      <point x="387" y="32"/>
      <point x="400" y="69"/>
      <point x="412" y="112" type="curve" smooth="yes"/>
      <point x="432" y="185"/>
      <point x="454" y="293"/>
    </contour>
    <contour>
      <point x="376" y="-75" type="move" name="b.uni0E38"/>
    </contour>
  </outline>
</glyph>
<glyph name="uni0E23" format="1">
  <advance width="354"/>
  <unicode hex="0E23"/>
    <anchor name="b.uni0E38" x="270" y="-75"/>
  <outline>
    <contour>
      <point x="297" y="350" type="curve" name="hr00"/>
      <point x="297" y="400" type="line"/>
      <point x="289" y="407"/>
      <point x="279" y="414"/>
      <point x="267" y="420" type="curve" smooth="yes"/>
      <point x="247" y="431"/>
      <point x="217" y="440"/>
      <point x="177" y="440" type="curve" smooth="yes"/>
      <point x="107" y="440"/>
      <point x="37" y="399"/>
      <point x="37" y="330" type="curve" smooth="yes"/>
      <point x="37" y="160"/>
      <point x="257" y="240"/>
      <point x="257" y="125" type="curve" smooth="yes"/>
      <point x="257" y="80"/>
      <point x="234" y="40"/>
      <point x="167" y="40" type="curve" smooth="yes"/>
      <point x="132" y="40"/>
      <point x="100" y="49"/>
      <point x="76" y="60" type="curve" smooth="yes"/>
      <point x="62" y="66"/>
      <point x="49" y="73"/>
      <point x="37" y="80" type="curve"/>
      <point x="37" y="30" type="line"/>
      <point x="47" y="23"/>
      <point x="59" y="16"/>
      <point x="72" y="11" type="curve"/>
      <point x="95" y="0"/>
      <point x="127" y="-8"/>
      <point x="167" y="-8" type="curve" smooth="yes"/>
      <point x="293" y="-8"/>
      <point x="317" y="60"/>
      <point x="317" y="125" type="curve" smooth="yes"/>
      <point x="317" y="290"/>
      <point x="97" y="221"/>
      <point x="97" y="330" type="curve" smooth="yes"/>
      <point x="97" y="370"/>
      <point x="137" y="390"/>
      <point x="177" y="390" type="curve" smooth="yes"/>
      <point x="217" y="390"/>
      <point x="247" y="381"/>
      <point x="267" y="370" type="curve" smooth="yes"/>
      <point x="279" y="364"/>
      <point x="289" y="357"/>
    </contour>
    <contour>
      <point x="270" y="-75" type="move" name="b.uni0E38"/>
    </contour>
  </outline>
</glyph>
<glyph name="uni0E30" format="1">
  <advance width="254"/>
  <unicode hex="0E30"/>
  <outline>
    <contour>
      <point x="217" y="329" type="line" name="hr00"/>
      <point x="135" y="329" type="line" smooth="yes"/>
      <point x="100" y="329"/>
      <point x="93" y="336"/>
      <point x="93" y="353" type="curve" smooth="yes"/>
      <point x="93" y="390" type="line"/>
      <point x="37" y="390" type="line"/>
      <point x="37" y="360" type="line" smooth="yes"/>
      <point x="37" y="299"/>
      <point x="65" y="280"/>
      <point x="121" y="280" type="curve" smooth="yes"/>
      <point x="197" y="280" type="line"/>
    </contour>
    <contour>
      <point x="217" y="109" type="line"/>
      <point x="135" y="109" type="line" smooth="yes"/>
      <point x="100" y="109"/>
      <point x="93" y="116"/>
      <point x="93" y="133" type="curve" smooth="yes"/>
      <point x="93" y="170" type="line"/>
      <point x="37" y="170" type="line"/>
      <point x="37" y="140" type="line" smooth="yes"/>
      <point x="37" y="79"/>
      <point x="65" y="60"/>
      <point x="121" y="60" type="curve" smooth="yes"/>
      <point x="197" y="60" type="line"/>
    </contour>
  </outline>
</glyph>
<glyph name="uni0E31" format="1">
  <advance width="0"/>
  <unicode hex="0E31"/>
    <anchor name="_t.uni0E31_2" x="-37" y="505"/>
    <anchor name="t.uni0E4B_2" x="-59" y="630"/>
  <outline>
    <contour>
      <point x="30" y="554" type="line" name="hr00"/>
      <point x="-145" y="554" type="line" smooth="yes"/>
      <point x="-180" y="554"/>
      <point x="-187" y="561"/>
      <point x="-187" y="578" type="curve" smooth="yes"/>
      <point x="-187" y="615" type="line"/>
      <point x="-243" y="615" type="line"/>
      <point x="-243" y="585" type="line" smooth="yes"/>
      <point x="-243" y="524"/>
      <point x="-215" y="505"/>
      <point x="-159" y="505" type="curve" smooth="yes"/>
      <point x="10" y="505" type="line"/>
    </contour>
    <contour>
      <point x="-37" y="505" type="move" name="_t.uni0E31_2"/>
    </contour>
    <contour>
      <point x="-59" y="630" type="move" name="t.uni0E4B_2"/>
    </contour>
  </outline>
</glyph>
<glyph name="uni0E38" format="1">
  <advance width="0"/>
  <unicode hex="0E38"/>
    <anchor name="_b.uni0E38" x="-37" y="-75"/>
    <anchor name="_b.uni0E38_2" x="-37" y="-75"/>
  <outline>
    <contour>
      <point x="-35" y="-213" type="line" name="hr00"/>
      <point x="-35" y="-143" type="line" smooth="yes"/>
      <point x="-35" y="-100"/>
      <point x="-60" y="-73"/>
      <point x="-103" y="-73" type="curve" smooth="yes"/>
      <point x="-145" y="-73" type="line"/>
      <point x="-145" y="-123" type="line"/>
      <point x="-117" y="-123" type="line" smooth="yes"/>
      <point x="-104" y="-123"/>
      <point x="-95" y="-135"/>
      <point x="-95" y="-147" type="curve" smooth="yes"/>
      <point x="-95" y="-213" type="line"/>
    </contour>
    <contour>
      <point x="-37" y="-75" type="move" name="_b.uni0E38"/>
    </contour>
    <contour>
      <point x="-37" y="-75" type="move" name="_b.uni0E38_2"/>
    </contour>
  </outline>
</glyph>
<glyph name="uni0E39" format="1">
  <advance width="0"/>
  <unicode hex="0E39"/>
    <anchor name="_b.uni0E38" x="-37" y="-75"/>
    <anchor name="_b.uni0E38_2" x="-109" y="-75"/>
  <outline>
    <contour>
      <point x="-215" y="-147" type="curve" smooth="yes" name="hr00"/>
      <point x="-215" y="-185"/>
      <point x="-202" y="-223"/>
      <point x="-125" y="-223" type="curve" smooth="yes"/>
      <point x="-48" y="-223"/>
      <point x="-35" y="-185"/>
      <point x="-35" y="-147" type="curve" smooth="yes"/>
      <point x="-35" y="-73" type="line"/>
      <point x="-95" y="-73" type="line"/>
      <point x="-95" y="-143" type="line" smooth="yes"/>
      <point x="-95" y="-163"/>
      <point x="-105" y="-173"/>
      <point x="-125" y="-173" type="curve" smooth="yes"/>
      <point x="-145" y="-173"/>
      <point x="-155" y="-163"/>
      <point x="-155" y="-143" type="curve" smooth="yes"/>
      <point x="-155" y="-100"/>
      <point x="-180" y="-73"/>
      <point x="-223" y="-73" type="curve" smooth="yes"/>
      <point x="-265" y="-73" type="line"/>
      <point x="-265" y="-123" type="line"/>
      <point x="-237" y="-123" type="line" smooth="yes"/>
      <point x="-224" y="-123"/>
      <point x="-215" y="-135"/>
    </contour>
    <contour>
      <point x="-37" y="-75" type="move" name="_b.uni0E38"/>
    </contour>
    <contour>
      <point x="-109" y="-75" type="move" name="_b.uni0E38_2"/>
    </contour>
  </outline>
</glyph>
<glyph name="uni0E40" format="1">
  <advance width="159"/>
  <unicode hex="0E40"/>
  <outline>
    <contour>
      <point x="37" y="430" type="line" name="hr00"/>
      <point x="37" y="70" type="line" smooth="yes"/>
      <point x="37" y="19"/>
      <point x="57" y="0"/>
      <point x="97" y="0" type="curve" smooth="yes"/>
      <point x="137" y="0" type="line"/>
      <point x="137" y="50" type="line"/>
      <point x="107" y="50" type="line"/>
      <point x="96" y="51"/>
      <point x="97" y="59"/>
      <point x="97" y="70" type="curve" smooth="yes"/>
      <point x="97" y="430" type="line"/>
    </contour>
  </outline>
</glyph>
<glyph name="uni0E44" format="1">
  <advance width="272"/>
  <unicode hex="0E44"/>
  <outline>
    <contour>
      <point x="210" y="70" type="curve" smooth="yes" name="hr00"/>
      <point x="210" y="510" type="line" smooth="yes"/>
      <point x="210" y="585"/>
      <point x="210" y="650"/>
      <point x="150" y="650" type="curve" smooth="yes"/>
      <point x="126" y="650"/>
      <point x="109" y="641"/>
      <point x="97" y="630" type="curve" smooth="yes"/>
      <point x="90" y="624"/>
      <point x="84" y="618"/>
      <point x="79" y="611" type="curve"/>
      <point x="74" y="616"/>
      <point x="45" y="650"/>
      <point x="0" y="650" type="curve"/>
      <point x="0" y="600" type="line"/>
      <point x="25" y="600"/>
      <point x="46" y="587"/>
      <point x="61" y="575" type="curve" smooth="yes"/>
      <point x="70" y="568"/>
      <point x="78" y="559"/>
      <point x="85" y="550" type="curve"/>
      <point x="88" y="557"/>
      <point x="91" y="565"/>
      <point x="95" y="572" type="curve" smooth="yes"/>
      <point x="102" y="584"/>
      <point x="111" y="596"/>
      <point x="122" y="600" type="curve" smooth="yes"/>
      <point x="157" y="611"/>
      <point x="150" y="538"/>
      <point x="150" y="510" type="curve" smooth="yes"/>
      <point x="150" y="70" type="line" smooth="yes"/>
      <point x="150" y="19"/>
      <point x="170" y="0"/>
      <point x="210" y="0" type="curve" smooth="yes"/>
      <point x="250" y="0" type="line"/>
      <point x="250" y="50" type="line"/>
      <point x="220" y="50" type="line"/>
      <point x="209" y="51"/>
      <point x="210" y="59"/>
    </contour>
  </outline>
</glyph>
<glyph name="uni0E48" format="1">
  <advance width="0"/>
  <unicode hex="0E48"/>
    <anchor name="_t.uni0E4B_5" x="-37" y="505"/>
    <anchor name="_t.uni0E4B" x="-31" y="500"/>
    <anchor name="_t.uni0E4B_2" x="-36" y="500"/>
  <outline>
    <contour>
      <point x="-95" y="505" type="line" name="hr00"/>
      <point x="-35" y="505" type="line"/>
      <point x="-35" y="615" type="line"/>
      <point x="-95" y="615" type="line"/>
    </contour>
    <contour>
      <point x="-37" y="505" type="move" name="_t.uni0E4B_5"/>
    </contour>
    <contour>
      <point x="-31" y="500" type="move" name="_t.uni0E4B"/>
    </contour>
    <contour>
      <point x="-36" y="500" type="move" name="_t.uni0E4B_2"/>
    </contour>
  </outline>
</glyph>
<glyph name="uni0E4C" format="1">
  <advance width="0"/>
  <unicode hex="0E4C"/>
    <anchor name="_t.uni0E4C_4" x="-130" y="505"/>
    <anchor name="_t.uni0E4B" x="-31" y="504"/>
  <outline>
    <contour>
      <point x="-128" y="505" type="line" name="hr00"/>
      <point x="-128" y="522" type="line" smooth="yes"/>
      <point x="-128" y="547"/>
      <point x="-114" y="565"/>
      <point x="-86" y="565" type="curve" smooth="yes"/>
      <point x="-68" y="565" type="line"/>
      <point x="-48" y="615" type="line"/>
      <point x="-100" y="615" type="line" smooth="yes"/>
      <point x="-156" y="615"/>
      <point x="-188" y="575"/>
      <point x="-188" y="526" type="curve" smooth="yes"/>
      <point x="-188" y="505" type="line"/>
    </contour>
    <contour>
      <point x="-130" y="505" type="move" name="_t.uni0E4C_4"/>
    </contour>
    <contour>
      <point x="-31" y="504" type="move" name="_t.uni0E4B"/>
    </contour>
  </outline>
</glyph>
<glyph name="uni0E4D" format="1">
  <advance width="0"/>
  <unicode hex="0E4D"/>
    <anchor name="_t.uni0E4D_1" x="-37" y="505"/>
    <anchor name="t.uni0E4B_2" x="-83" y="740"/>
  <outline>
    <contour>
      <point x="-195" y="585" type="curve" smooth="yes" name="hr00"/>
      <point x="-195" y="541"/>
      <point x="-159" y="505"/>
      <point x="-115" y="505" type="curve" smooth="yes"/>
      <point x="-71" y="505"/>
      <point x="-35" y="541"/>
      <point x="-35" y="585" type="curve" smooth="yes"/>
      <point x="-35" y="629"/>
      <point x="-71" y="665"/>
      <point x="-115" y="665" type="curve" smooth="yes"/>
      <point x="-159" y="665"/>
      <point x="-195" y="629"/>
    </contour>
    <contour>
      <point x="-145" y="585" type="curve" smooth="yes"/>
      <point x="-145" y="601"/>
      <point x="-132" y="615"/>
      <point x="-115" y="615" type="curve" smooth="yes"/>
      <point x="-99" y="615"/>
      <point x="-85" y="601"/>
      <point x="-85" y="585" type="curve" smooth="yes"/>
      <point x="-85" y="568"/>
      <point x="-99" y="555"/>
      <point x="-115" y="555" type="curve" smooth="yes"/>
      <point x="-132" y="555"/>
      <point x="-145" y="568"/>
    </contour>
    <contour>
      <point x="-37" y="505" type="move" name="_t.uni0E4D_1"/>
    </contour>
    <contour>
      <point x="-83" y="740" type="move" name="t.uni0E4B_2"/>
    </contour>
  </outline>
</glyph>
<glyph name="uni0E4E" format="1">
  <advance width="0"/>
  <unicode hex="0E4E"/>
    <anchor name="_t.uni0E4C_4" x="-160" y="505"/>
    <anchor name="_t.uni0E4B" x="-71" y="504"/>
  <outline>
    <contour>
      <point x="-218" y="505" type="curve" name="hr00"/>
      <point x="-158" y="505" type="line"/>
      <point x="-166" y="513" type="line" smooth="yes"/>
      <point x="-171" y="519"/>
      <point x="-173" y="527"/>
      <point x="-173" y="537" type="curve" smooth="yes"/>
      <point x="-173" y="568"/>
      <point x="-144" y="575"/>
      <point x="-116" y="575" type="curve"/>
      <point x="-116" y="645"/>
      <point x="-88" y="645"/>
      <point x="-48" y="645" type="curve"/>
      <point x="-48" y="680" type="line"/>
      <point x="-116" y="680"/>
      <point x="-146" y="660"/>
      <point x="-146" y="617" type="curve"/>
      <point x="-193" y="617"/>
      <point x="-229" y="588"/>
      <point x="-229" y="543" type="curve" smooth="yes"/>
      <point x="-229" y="530"/>
      <point x="-225" y="518"/>
    </contour>
    <contour>
      <point x="-160" y="505" type="move" name="_t.uni0E4C_4"/>
    </contour>
    <contour>
      <point x="-71" y="504" type="move" name="_t.uni0E4B"/>
    </contour>
  </outline>
</glyph>
<glyph name="uni0E50" format="1">
  <advance width="425"/>
  <unicode hex="0E50"/>
  <outline>
    <contour>
      <point x="22" y="180" type="curve" smooth="yes" name="hr00"/>
      <point x="22" y="75"/>
      <point x="107" y="-8"/>
      <point x="212" y="-8" type="curve" smooth="yes"/>
      <point x="317" y="-8"/>
      <point x="403" y="75"/>
      <point x="403" y="180" type="curve" smooth="yes"/>
      <point x="403" y="285"/>
      <point x="317" y="370"/>
      <point x="212" y="370" type="curve" smooth="yes"/>
      <point x="107" y="370"/>
      <point x="22" y="285"/>
    </contour>
    <contour>
      <point x="82" y="180" type="curve" smooth="yes"/>
      <point x="82" y="257"/>
      <point x="140" y="320"/>
      <point x="212" y="320" type="curve" smooth="yes"/>
      <point x="284" y="320"/>
      <point x="343" y="257"/>
      <point x="343" y="180" type="curve" smooth="yes"/>
      <point x="343" y="103"/>
      <point x="284" y="40"/>
      <point x="212" y="40" type="curve" smooth="yes"/>
      <point x="140" y="40"/>
      <point x="82" y="103"/>
    </contour>
  </outline>
</glyph>
<glyph name="uni0E51" format="1">
  <advance width="424"/>
  <unicode hex="0E51"/>
  <outline>
    <contour>
      <point x="172" y="10" type="line" name="hr00"/>
      <point x="158" y="-37" type="line"/>
      <point x="165" y="-38"/>
      <point x="171" y="-38"/>
      <point x="176" y="-38" type="curve" smooth="yes"/>
      <point x="292" y="-38"/>
      <point x="402" y="46"/>
      <point x="402" y="165" type="curve" smooth="yes"/>
      <point x="402" y="300"/>
      <point x="310" y="370"/>
      <point x="206" y="370" type="curve" smooth="yes"/>
      <point x="97" y="370"/>
      <point x="22" y="293"/>
      <point x="22" y="216" type="curve" smooth="yes"/>
      <point x="22" y="129"/>
      <point x="85" y="80"/>
      <point x="141" y="80" type="curve" smooth="yes"/>
      <point x="222" y="80"/>
      <point x="242" y="131"/>
      <point x="242" y="167" type="curve" smooth="yes"/>
      <point x="242" y="188" type="line"/>
      <point x="182" y="188" type="line"/>
      <point x="182" y="169" type="line" smooth="yes"/>
      <point x="182" y="146"/>
      <point x="172" y="130"/>
      <point x="141" y="130" type="curve" smooth="yes"/>
      <point x="112" y="130"/>
      <point x="82" y="171"/>
      <point x="82" y="216" type="curve" smooth="yes"/>
      <point x="82" y="247"/>
      <point x="110" y="320"/>
      <point x="206" y="320" type="curve" smooth="yes"/>
      <point x="280" y="320"/>
      <point x="342" y="270"/>
      <point x="342" y="165" type="curve" smooth="yes"/>
      <point x="342" y="74"/>
      <point x="251" y="10"/>
      <point x="176" y="10" type="curve" smooth="yes"/>
    </contour>
  </outline>
</glyph>
<glyph name="uni0E52" format="1">
  <advance width="529"/>
  <unicode hex="0E52"/>
  <outline>
    <contour>
      <point x="218" y="-8" type="curve" smooth="yes" name="hr00"/>
      <point x="377" y="-8" type="line" smooth="yes"/>
      <point x="440" y="-8"/>
      <point x="507" y="27"/>
      <point x="507" y="126" type="curve" smooth="yes"/>
      <point x="507" y="234" type="line" smooth="yes"/>
      <point x="507" y="297"/>
      <point x="479" y="370"/>
      <point x="407" y="370" type="curve" smooth="yes"/>
      <point x="387" y="370"/>
      <point x="373" y="363"/>
      <point x="362" y="356" type="curve" smooth="yes"/>
      <point x="356" y="352"/>
      <point x="351" y="347"/>
      <point x="347" y="342" type="curve"/>
      <point x="343" y="347"/>
      <point x="338" y="352"/>
      <point x="332" y="356" type="curve" smooth="yes"/>
      <point x="321" y="363"/>
      <point x="307" y="370"/>
      <point x="287" y="370" type="curve" smooth="yes"/>
      <point x="223" y="370"/>
      <point x="197" y="311"/>
      <point x="197" y="276" type="curve" smooth="yes"/>
      <point x="197" y="175"/>
      <point x="285" y="160"/>
      <point x="337" y="160" type="curve"/>
      <point x="337" y="210" type="line"/>
      <point x="308" y="210"/>
      <point x="257" y="215"/>
      <point x="257" y="276" type="curve" smooth="yes"/>
      <point x="257" y="299"/>
      <point x="274" y="320"/>
      <point x="302" y="320" type="curve" smooth="yes"/>
      <point x="314" y="320"/>
      <point x="325" y="311"/>
      <point x="333" y="300" type="curve" smooth="yes"/>
      <point x="338" y="294"/>
      <point x="342" y="287"/>
      <point x="346" y="280" type="curve"/>
      <point x="351" y="287"/>
      <point x="355" y="294"/>
      <point x="360" y="300" type="curve" smooth="yes"/>
      <point x="368" y="311"/>
      <point x="379" y="320"/>
      <point x="392" y="320" type="curve" smooth="yes"/>
      <point x="432" y="320"/>
      <point x="447" y="269"/>
      <point x="447" y="234" type="curve" smooth="yes"/>
      <point x="447" y="123" type="line" smooth="yes"/>
      <point x="447" y="56"/>
      <point x="399" y="40"/>
      <point x="363" y="40" type="curve" smooth="yes"/>
      <point x="232" y="40" type="line" smooth="yes"/>
      <point x="202" y="40"/>
      <point x="147" y="56"/>
      <point x="147" y="123" type="curve" smooth="yes"/>
      <point x="147" y="424" type="line" smooth="yes"/>
      <point x="147" y="483"/>
      <point x="120" y="569"/>
      <point x="22" y="569" type="curve" smooth="yes"/>
      <point x="7" y="569" type="line"/>
      <point x="7" y="520" type="line"/>
      <point x="77" y="520"/>
      <point x="87" y="470"/>
      <point x="87" y="427" type="curve" smooth="yes"/>
      <point x="87" y="126" type="line" smooth="yes"/>
      <point x="87" y="27"/>
      <point x="160" y="-8"/>
    </contour>
  </outline>
</glyph>
<glyph name="uni0E54" format="1">
  <advance width="509"/>
  <unicode hex="0E54"/>
  <outline>
    <contour>
      <point x="163" y="310" type="curve" smooth="yes" name="hr00"/>
      <point x="345" y="310" type="line" smooth="yes"/>
      <point x="414" y="310"/>
      <point x="472" y="342"/>
      <point x="472" y="441" type="curve" smooth="yes"/>
      <point x="472" y="570" type="line"/>
      <point x="412" y="570" type="line"/>
      <point x="412" y="438" type="line" smooth="yes"/>
      <point x="412" y="371"/>
      <point x="373" y="360"/>
      <point x="331" y="360" type="curve" smooth="yes"/>
      <point x="163" y="360" type="line" smooth="yes"/>
      <point x="71" y="360"/>
      <point x="22" y="266"/>
      <point x="22" y="175" type="curve" smooth="yes"/>
      <point x="22" y="84"/>
      <point x="71" y="0"/>
      <point x="163" y="0" type="curve" smooth="yes"/>
      <point x="472" y="0" type="line"/>
      <point x="472" y="50" type="line"/>
      <point x="422" y="50" type="line" smooth="yes"/>
      <point x="374" y="50"/>
      <point x="302" y="112"/>
      <point x="302" y="196" type="curve"/>
      <point x="240" y="196" type="line"/>
      <point x="240" y="147"/>
      <point x="265" y="110"/>
      <point x="290" y="86" type="curve" smooth="yes"/>
      <point x="305" y="72"/>
      <point x="322" y="60"/>
      <point x="341" y="50" type="curve"/>
      <point x="163" y="50" type="line" smooth="yes"/>
      <point x="107" y="50"/>
      <point x="82" y="111"/>
      <point x="82" y="175" type="curve" smooth="yes"/>
      <point x="82" y="239"/>
      <point x="107" y="310"/>
    </contour>
  </outline>
</glyph>
<glyph name="uni0E5B" format="1">
  <advance width="714"/>
  <unicode hex="0E5B"/>
  <outline>
    <contour>
      <point x="220" y="-8" type="curve" smooth="yes" name="hr00"/>
      <point x="253" y="-8"/>
      <point x="278" y="4"/>
      <point x="297" y="16" type="curve" smooth="yes"/>
      <point x="308" y="23"/>
      <point x="317" y="31"/>
      <point x="325" y="40" type="curve"/>
      <point x="377" y="-8" type="line"/>
      <point x="416" y="40" type="line"/>
      <point x="462" y="-8" type="line"/>
      <point x="503" y="40" type="line"/>
      <point x="510" y="31"/>
      <point x="517" y="23"/>
      <point x="526" y="16" type="curve" smooth="yes"/>
      <point x="541" y="4"/>
      <point x="562" y="-8"/>
      <point x="587" y="-8" type="curve" smooth="yes"/>
      <point x="667" y="-8"/>
      <point x="677" y="55"/>
      <point x="677" y="77" type="curve" smooth="yes"/>
      <point x="677" y="94"/>
      <point x="672" y="107"/>
      <point x="667" y="115" type="curve" smooth="yes"/>
      <point x="664" y="120"/>
      <point x="661" y="123"/>
      <point x="657" y="126" type="curve"/>
      <point x="597" y="126" type="line"/>
      <point x="601" y="123"/>
      <point x="604" y="119"/>
      <point x="607" y="114" type="curve" smooth="yes"/>
      <point x="612" y="106"/>
      <point x="617" y="93"/>
      <point x="617" y="77" type="curve" smooth="yes"/>
      <point x="617" y="65"/>
      <point x="608" y="40"/>
      <point x="573" y="40" type="curve" smooth="yes"/>
      <point x="554" y="40"/>
      <point x="538" y="52"/>
      <point x="525" y="65" type="curve" smooth="yes"/>
      <point x="518" y="72"/>
      <point x="510" y="81"/>
      <point x="503" y="90" type="curve"/>
      <point x="462" y="40" type="line"/>
      <point x="416" y="90" type="line"/>
      <point x="377" y="40" type="line"/>
      <point x="325" y="90" type="line"/>
      <point x="318" y="81"/>
      <point x="309" y="72"/>
      <point x="298" y="65" type="curve" smooth="yes"/>
      <point x="279" y="52"/>
      <point x="253" y="40"/>
      <point x="220" y="40" type="curve"/>
      <point x="147" y="41"/>
      <point x="97" y="98"/>
      <point x="97" y="174" type="curve" smooth="yes"/>
      <point x="97" y="254"/>
      <point x="147" y="320"/>
      <point x="216" y="320" type="curve" smooth="yes"/>
      <point x="261" y="320"/>
      <point x="289" y="299"/>
      <point x="304" y="278" type="curve" smooth="yes"/>
      <point x="313" y="266"/>
      <point x="319" y="252"/>
      <point x="323" y="236" type="curve"/>
      <point x="381" y="236" type="line"/>
      <point x="376" y="261"/>
      <point x="368" y="283"/>
      <point x="355" y="303" type="curve" smooth="yes"/>
      <point x="332" y="336"/>
      <point x="291" y="370"/>
      <point x="216" y="370" type="curve" smooth="yes"/>
      <point x="107" y="370"/>
      <point x="37" y="281"/>
      <point x="37" y="174" type="curve" smooth="yes"/>
      <point x="37" y="75"/>
      <point x="117" y="-8"/>
    </contour>
  </outline>
</glyph>
<glyph name="endash" format="1">
  <advance width="374"/>
  <unicode hex="2013"/>
  <outline>
    <contour>
      <point x="337" y="190" type="line" name="hr00"/>
      <point x="337" y="240" type="line"/>
      <point x="37" y="240" type="line"/>
      <point x="37" y="190" type="line"/>
    </contour>
  </outline>
</glyph>
<glyph name="quoteright" format="1">
  <advance width="134"/>
  <unicode hex="2019"/>
  <outline>
    <contour>
      <point x="37" y="530" type="line" name="hr00"/>
      <point x="37" y="470" type="line" smooth="yes"/>
      <point x="37" y="445"/>
      <point x="23" y="417"/>
      <point x="8" y="396" type="curve" smooth="yes"/>
      <point x="-1" y="384"/>
      <point x="-10" y="372"/>
      <point x="-21" y="360" type="curve"/>
      <point x="27" y="360" type="line"/>
      <point x="40" y="369"/>
      <point x="51" y="380"/>
      <point x="62" y="392" type="curve" smooth="yes"/>
      <point x="79" y="412"/>
      <point x="97" y="439"/>
      <point x="97" y="470" type="curve" smooth="yes"/>
      <point x="97" y="530" type="line"/>
    </contour>
  </outline>
</glyph>
<glyph name="quotedblleft" format="1">
  <advance width="244"/>
  <unicode hex="201C"/>
  <outline>
    <contour>
      <point x="97" y="360" type="line" name="hr00"/>
      <point x="97" y="420" type="line" smooth="yes"/>
      <point x="97" y="445"/>
      <point x="112" y="473"/>
      <point x="127" y="494" type="curve" smooth="yes"/>
      <point x="136" y="506"/>
      <point x="146" y="518"/>
      <point x="157" y="530" type="curve"/>
      <point x="107" y="530" type="line"/>
      <point x="94" y="520"/>
      <point x="82" y="509"/>
      <point x="72" y="497" type="curve" smooth="yes"/>
      <point x="53" y="477"/>
      <point x="37" y="451"/>
      <point x="37" y="420" type="curve" smooth="yes"/>
      <point x="37" y="360" type="line"/>
    </contour>
    <contour>
      <point x="207" y="360" type="line"/>
      <point x="207" y="420" type="line" smooth="yes"/>
      <point x="207" y="445"/>
      <point x="222" y="473"/>
      <point x="237" y="494" type="curve" smooth="yes"/>
      <point x="246" y="506"/>
      <point x="256" y="518"/>
      <point x="267" y="530" type="curve"/>
      <point x="217" y="530" type="line"/>
      <point x="204" y="520"/>
      <point x="192" y="509"/>
      <point x="182" y="497" type="curve" smooth="yes"/>
      <point x="163" y="477"/>
      <point x="147" y="451"/>
      <point x="147" y="420" type="curve" smooth="yes"/>
      <point x="147" y="360" type="line"/>
    </contour>
  </outline>
</glyph>
<glyph name="quotedblright" format="1">
  <advance width="244"/>
  <unicode hex="201D"/>
  <outline>
    <contour>
      <point x="147" y="530" type="line" name="hr00"/>
      <point x="147" y="470" type="line" smooth="yes"/>
      <point x="147" y="445"/>
      <point x="132" y="417"/>
      <point x="117" y="396" type="curve" smooth="yes"/>
      <point x="108" y="384"/>
      <point x="98" y="372"/>
      <point x="87" y="360" type="curve"/>
      <point x="137" y="360" type="line"/>
      <point x="150" y="369"/>
      <point x="161" y="380"/>
      <point x="172" y="392" type="curve" smooth="yes"/>
      <point x="189" y="412"/>
      <point x="207" y="439"/>
      <point x="207" y="470" type="curve" smooth="yes"/>
      <point x="207" y="530" type="line"/>
    </contour>
    <contour>
      <point x="37" y="530" type="line"/>
      <point x="37" y="470" type="line" smooth="yes"/>
      <point x="37" y="445"/>
      <point x="23" y="417"/>
      <point x="8" y="396" type="curve" smooth="yes"/>
      <point x="-1" y="384"/>
      <point x="-10" y="372"/>
      <point x="-21" y="360" type="curve"/>
      <point x="27" y="360" type="line"/>
      <point x="40" y="369"/>
      <point x="51" y="380"/>
      <point x="62" y="392" type="curve" smooth="yes"/>
      <point x="79" y="412"/>
      <point x="97" y="439"/>
      <point x="97" y="470" type="curve" smooth="yes"/>
      <point x="97" y="530" type="line"/>
    </contour>
  </outline>
</glyph>
<glyph name="bullet" format="1">
  <advance width="256"/>
  <unicode hex="2022"/>
  <outline>
    <contour>
      <point x="128" y="308" type="curve" smooth="yes" name="hr00"/>
      <point x="77" y="308"/>
      <point x="37" y="268"/>
      <point x="37" y="217" type="curve" smooth="yes"/>
      <point x="37" y="166"/>
      <point x="77" y="126"/>
      <point x="128" y="126" type="curve" smooth="yes"/>
      <point x="179" y="126"/>
      <point x="219" y="166"/>
      <point x="219" y="217" type="curve" smooth="yes"/>
      <point x="219" y="268"/>
      <point x="179" y="308"/>
    </contour>
  </outline>
</glyph>
<glyph name="Euro" format="1">
  <advance width="504"/>
  <unicode hex="20AC"/>
  <outline>
    <contour>
      <point x="37" y="270" type="line" name="hr00"/>
      <point x="88" y="270" type="line"/>
      <point x="87" y="259"/>
      <point x="87" y="251"/>
      <point x="87" y="240" type="curve" smooth="yes"/>
      <point x="87" y="215" type="line"/>
      <point x="37" y="215" type="line"/>
      <point x="37" y="165" type="line"/>
      <point x="95" y="165" type="line"/>
      <point x="122" y="56"/>
      <point x="207" y="-8"/>
      <point x="326" y="-8" type="curve" smooth="yes"/>
      <point x="381" y="-8"/>
      <point x="428" y="-1"/>
      <point x="467" y="20" type="curve"/>
      <point x="447" y="70" type="line"/>
      <point x="408" y="50"/>
      <point x="384" y="40"/>
      <point x="333" y="40" type="curve" smooth="yes"/>
      <point x="245" y="40"/>
      <point x="181" y="85"/>
      <point x="157" y="165" type="curve"/>
      <point x="337" y="165" type="line"/>
      <point x="337" y="215" type="line"/>
      <point x="148" y="215" type="line"/>
      <point x="147" y="223"/>
      <point x="147" y="231"/>
      <point x="147" y="240" type="curve" smooth="yes"/>
      <point x="147" y="251"/>
      <point x="147" y="259"/>
      <point x="148" y="270" type="curve"/>
      <point x="357" y="270" type="line"/>
      <point x="357" y="320" type="line"/>
      <point x="158" y="320" type="line"/>
      <point x="183" y="400"/>
      <point x="246" y="450"/>
      <point x="333" y="450" type="curve" smooth="yes"/>
      <point x="376" y="450"/>
      <point x="408" y="449"/>
      <point x="447" y="430" type="curve"/>
      <point x="467" y="480" type="line"/>
      <point x="435" y="495"/>
      <point x="382" y="500"/>
      <point x="333" y="500" type="curve" smooth="yes"/>
      <point x="212" y="500"/>
      <point x="124" y="433"/>
      <point x="96" y="320" type="curve"/>
      <point x="37" y="320" type="line"/>
    </contour>
  </outline>
</glyph>
<glyph name="arm" format="1">
  <advance width="1044"/>
  <outline>
    <contour>
      <point x="517" y="450" type="line" name="hr00"/>
      <point x="786" y="450" type="line"/>
      <point x="847" y="260" type="line"/>
      <point x="1007" y="260" type="line"/>
      <point x="807" y="880" type="line"/>
      <point x="635" y="880" type="line"/>
      <point x="407" y="260" type="line"/>
      <point x="447" y="260" type="line"/>
    </contour>
    <contour>
      <point x="207" y="-238" type="line"/>
      <point x="277" y="-88" type="line"/>
      <point x="347" y="-238" type="line"/>
      <point x="373" y="-238" type="line"/>
      <point x="407" y="-58" type="line"/>
      <point x="487" y="-38" type="line"/>
      <point x="487" y="-68" type="line" smooth="yes"/>
      <point x="487" y="-208"/>
      <point x="486" y="-308"/>
      <point x="407" y="-308" type="curve" smooth="yes"/>
      <point x="387" y="-308"/>
      <point x="367" y="-298"/>
      <point x="367" y="-278" type="curve"/>
      <point x="347" y="-278" type="line"/>
      <point x="347" y="-318"/>
      <point x="377" y="-338"/>
      <point x="417" y="-338" type="curve" smooth="yes"/>
      <point x="517" y="-338"/>
      <point x="527" y="-228"/>
      <point x="527" y="-68" type="curve" smooth="yes"/>
      <point x="527" y="-28" type="line"/>
      <point x="609" y="-7" type="line"/>
      <point x="600" y="29" type="line"/>
      <point x="527" y="11" type="line"/>
      <point x="527" y="111"/>
      <point x="546" y="160"/>
      <point x="597" y="160" type="curve" smooth="yes"/>
      <point x="617" y="160"/>
      <point x="627" y="140"/>
      <point x="627" y="120" type="curve"/>
      <point x="647" y="120" type="line"/>
      <point x="647" y="160"/>
      <point x="627" y="190"/>
      <point x="587" y="190" type="curve" smooth="yes"/>
      <point x="518" y="190"/>
      <point x="487" y="141"/>
      <point x="487" y="1" type="curve"/>
      <point x="422" y="-13" type="line"/>
      <point x="411" y="-33" type="line"/>
      <point x="427" y="50" type="line"/>
      <point x="377" y="50" type="line"/>
      <point x="342" y="-158" type="line"/>
      <point x="287" y="-48" type="line"/>
      <point x="267" y="-48" type="line"/>
      <point x="212" y="-158" type="line"/>
      <point x="190" y="-56" type="line"/>
      <point x="217" y="-37"/>
      <point x="217" y="-8"/>
      <point x="217" y="0" type="curve" smooth="yes"/>
      <point x="217" y="40"/>
      <point x="187" y="70"/>
      <point x="147" y="70" type="curve" smooth="yes"/>
      <point x="97" y="70"/>
      <point x="77" y="30"/>
      <point x="77" y="0" type="curve" smooth="yes"/>
      <point x="77" y="-51"/>
      <point x="122" y="-68"/>
      <point x="147" y="-68" type="curve" smooth="yes"/>
      <point x="154" y="-68"/>
      <point x="158" y="-68"/>
      <point x="161" y="-67" type="curve"/>
      <point x="164" y="-67"/>
      <point x="166" y="-67"/>
      <point x="167" y="-66" type="curve"/>
      <point x="149" y="-78" type="line"/>
      <point x="181" y="-238" type="line"/>
    </contour>
    <contour>
      <point x="197" y="620" type="line"/>
      <point x="197" y="500" type="line"/>
      <point x="90" y="260" type="line"/>
      <point x="130" y="260" type="line"/>
      <point x="217" y="460" type="line"/>
      <point x="304" y="260" type="line"/>
      <point x="344" y="260" type="line"/>
      <point x="237" y="500" type="line"/>
      <point x="237" y="620" type="line"/>
      <point x="397" y="620" type="line"/>
      <point x="397" y="660" type="line"/>
      <point x="237" y="660" type="line"/>
      <point x="237" y="740" type="line"/>
      <point x="276" y="743"/>
      <point x="297" y="784"/>
      <point x="297" y="820" type="curve" smooth="yes"/>
      <point x="297" y="871"/>
      <point x="268" y="900"/>
      <point x="217" y="900" type="curve" smooth="yes"/>
      <point x="177" y="900"/>
      <point x="137" y="867"/>
      <point x="137" y="820" type="curve" smooth="yes"/>
      <point x="137" y="777"/>
      <point x="167" y="740"/>
      <point x="197" y="740" type="curve"/>
      <point x="197" y="660" type="line"/>
      <point x="37" y="660" type="line"/>
      <point x="37" y="620" type="line"/>
    </contour>
    <contour>
      <point x="777" y="-98" type="curve" smooth="yes"/>
      <point x="777" y="-198"/>
      <point x="826" y="-238"/>
      <point x="877" y="-238" type="curve" smooth="yes"/>
      <point x="957" y="-238"/>
      <point x="1007" y="-179"/>
      <point x="1007" y="-48" type="curve" smooth="yes"/>
      <point x="1007" y="40"/>
      <point x="968" y="91"/>
      <point x="897" y="91" type="curve" smooth="yes"/>
      <point x="828" y="91"/>
      <point x="777" y="0"/>
    </contour>
    <contour>
      <point x="769" y="500" type="line"/>
      <point x="537" y="500" type="line"/>
      <point x="660" y="840" type="line"/>
    </contour>
    <contour>
      <point x="817" y="-128" type="curve"/>
      <point x="957" y="-68" type="line"/>
      <point x="956" y="-93"/>
      <point x="953" y="-114"/>
      <point x="947" y="-133" type="curve" smooth="yes"/>
      <point x="936" y="-166"/>
      <point x="917" y="-198"/>
      <point x="877" y="-198" type="curve" smooth="yes"/>
      <point x="836" y="-198"/>
      <point x="817" y="-158"/>
    </contour>
    <contour>
      <point x="957" y="-18" type="curve"/>
      <point x="817" y="-78" type="line"/>
      <point x="820" y="-54"/>
      <point x="824" y="-33"/>
      <point x="831" y="-14" type="curve" smooth="yes"/>
      <point x="842" y="18"/>
      <point x="862" y="50"/>
      <point x="897" y="50" type="curve" smooth="yes"/>
      <point x="928" y="50"/>
      <point x="941" y="33"/>
      <point x="949" y="16" type="curve" smooth="yes"/>
      <point x="953" y="6"/>
      <point x="956" y="-5"/>
    </contour>
    <contour>
      <point x="177" y="820" type="curve" smooth="yes"/>
      <point x="177" y="851"/>
      <point x="197" y="860"/>
      <point x="217" y="860" type="curve" smooth="yes"/>
      <point x="237" y="860"/>
      <point x="257" y="851"/>
      <point x="257" y="820" type="curve" smooth="yes"/>
      <point x="257" y="800"/>
      <point x="248" y="780"/>
      <point x="217" y="780" type="curve" smooth="yes"/>
      <point x="186" y="780"/>
      <point x="177" y="800"/>
    </contour>
    <contour>
      <point x="785" y="838" type="line"/>
      <point x="796" y="804" type="line"/>
      <point x="740" y="710" type="line"/>
      <point x="729" y="746" type="line"/>
    </contour>
    <contour>
      <point x="909" y="452" type="line"/>
      <point x="852" y="361" type="line"/>
      <point x="846" y="380" type="line"/>
      <point x="903" y="473" type="line"/>
    </contour>
    <contour>
      <point x="855" y="619" type="line"/>
      <point x="799" y="526" type="line"/>
      <point x="792" y="550" type="line"/>
      <point x="848" y="643" type="line"/>
    </contour>
    <contour>
      <point x="736" y="20" type="line"/>
      <point x="766" y="120" type="line"/>
      <point x="736" y="120" type="line"/>
      <point x="716" y="20" type="line"/>
    </contour>
    <contour>
      <point x="666" y="20" type="line"/>
      <point x="686" y="20" type="line"/>
      <point x="716" y="120" type="line"/>
      <point x="686" y="120" type="line"/>
    </contour>
    <contour>
      <point x="117" y="0" type="curve" smooth="yes"/>
      <point x="117" y="16"/>
      <point x="127" y="30"/>
      <point x="147" y="30" type="curve" smooth="yes"/>
      <point x="167" y="30"/>
      <point x="177" y="20"/>
      <point x="177" y="0" type="curve" smooth="yes"/>
      <point x="177" y="-19"/>
      <point x="167" y="-28"/>
      <point x="147" y="-28" type="curve" smooth="yes"/>
      <point x="127" y="-28"/>
      <point x="117" y="-15"/>
    </contour>
    <contour>
      <point x="820" y="729" type="line"/>
      <point x="826" y="709" type="line"/>
      <point x="770" y="616" type="line"/>
      <point x="764" y="636" type="line"/>
    </contour>
    <contour>
      <point x="868" y="577" type="line"/>
      <point x="813" y="484" type="line"/>
      <point x="806" y="504" type="line"/>
      <point x="863" y="597" type="line"/>
    </contour>
    <contour>
      <point x="722" y="765" type="line"/>
      <point x="714" y="793" type="line"/>
      <point x="749" y="850" type="line"/>
      <point x="774" y="850" type="line"/>
    </contour>
    <contour>
      <point x="812" y="753" type="line"/>
      <point x="756" y="660" type="line"/>
      <point x="750" y="680" type="line"/>
      <point x="806" y="773" type="line"/>
    </contour>
    <contour>
      <point x="895" y="496" type="line"/>
      <point x="839" y="404" type="line"/>
      <point x="833" y="420" type="line"/>
      <point x="889" y="513" type="line"/>
    </contour>
    <contour>
      <point x="841" y="662" type="line"/>
      <point x="785" y="570" type="line"/>
      <point x="779" y="590" type="line"/>
      <point x="834" y="683" type="line"/>
    </contour>
    <contour>
      <point x="915" y="433" type="line"/>
      <point x="922" y="411" type="line"/>
      <point x="866" y="317" type="line"/>
      <point x="859" y="340" type="line"/>
    </contour>
    <contour>
      <point x="882" y="534" type="line"/>
      <point x="826" y="443" type="line"/>
      <point x="820" y="459" type="line"/>
      <point x="877" y="553" type="line"/>
    </contour>
    <contour>
      <point x="872" y="300" type="line"/>
      <point x="928" y="393" type="line"/>
      <point x="935" y="369" type="line"/>
      <point x="888" y="290" type="line"/>
      <point x="875" y="290" type="line"/>
    </contour>
    <contour>
      <point x="707" y="811" type="line"/>
      <point x="694" y="850" type="line"/>
      <point x="730" y="850" type="line"/>
    </contour>
    <contour>
      <point x="948" y="331" type="line"/>
      <point x="924" y="290" type="line"/>
      <point x="904" y="290" type="line"/>
      <point x="941" y="351" type="line"/>
    </contour>
    <contour>
      <point x="960" y="290" type="line"/>
      <point x="940" y="290" type="line"/>
      <point x="953" y="312" type="line"/>
    </contour>
  </outline>
</glyph>
